<svg width="78" height="78" viewBox="0 0 78 78" fill="none" xmlns="http://www.w3.org/2000/svg">
<g style="mix-blend-mode:luminosity" clip-path="url(#clip0_147_6)">
<path d="M68.0738 56.9399C68.2908 59.244 69.3298 62.3133 67.3915 64.1326C65.5706 65.8638 62.5019 65.1473 60.2888 65.0723C60.0418 65.046 59.6342 65.0696 59.3105 65.129C59.7446 64.86 60.1332 64.5123 60.4763 64.086C62.0023 62.2093 60.953 60.3599 59.2536 59.2797C59.2417 59.0772 59.2275 58.8341 59.1748 58.634C59.9446 58.5081 60.6712 58.3441 61.4385 58.1777C63.4169 57.738 62.7017 54.6093 60.7882 54.7607C59.8098 54.8174 58.8339 54.9146 57.8963 54.9689C58.302 54.2138 58.1994 53.163 57.6267 52.4646C58.1204 48.3311 58.161 44.1426 57.5517 40.0323C57.2936 38.4215 57.2397 36.108 55.5521 35.2303C53.8214 34.3145 50.8742 34.9729 48.956 35.0433C39.2808 35.3598 29.6009 35.5953 19.8826 35.8736C18.8204 35.8945 17.7001 37.0161 17.8865 38.1027C18.5967 41.8413 19.2661 45.5823 20.0146 49.2781C20.3638 51.0462 20.7537 52.8119 21.1843 54.5752C21.4642 55.8596 21.6479 57.5966 22.8008 58.424C22.2709 58.4546 21.7433 58.5258 21.2205 58.678C20.3356 58.9325 19.7883 60.0616 20.1236 60.8957C20.3678 61.5724 20.8423 61.992 21.3913 62.2854C20.7965 62.6043 20.5681 63.593 21.3664 63.9532C20.9251 64.1006 20.5773 64.4459 20.6106 65.013C20.6343 65.4181 20.7396 65.8184 20.8833 66.1759C20.5236 66.3186 19.9913 66.3088 19.6244 66.33C18.5214 66.3533 17.3681 66.2169 16.2628 66.1996C15.812 66.1851 15.2773 66.1347 14.884 66.4014C14.373 66.7561 14.3319 67.4494 14.0775 67.9925C12.5352 68.8947 11.7587 68.2081 12.2947 70.3718C12.2971 70.4123 12.4193 70.4052 12.417 70.3647C12.3314 68.9065 13.4079 69.1287 14.2928 68.8742C14.4103 68.7861 14.5663 68.6551 14.6814 68.5265C15.0582 67.9764 15.653 67.6574 16.5114 67.6483C17.0844 67.6558 17.6718 67.9063 18.2448 67.9137C19.2279 67.9381 20.5612 67.6577 21.2138 66.9289C21.7121 67.7536 22.4478 68.4425 23.2916 68.8814L23.2101 68.8861C20.9178 68.8563 22.476 69.6195 21.1997 70.8721C21.1229 70.9578 21.2164 71.1556 21.3363 71.108C22.0557 70.8225 21.5377 71.0557 22.1206 70.5343C22.2766 70.4033 22.1305 70.0053 22.248 69.9172C23.0684 69.2601 25.0773 70.0379 26.1301 69.855C27.2643 69.6674 28.2094 69.0436 28.9795 68.2268C29.2529 68.0078 29.5264 67.7887 29.7567 67.5315C30.1786 67.7509 30.6365 67.887 31.0897 67.942C31.8254 68.631 32.8251 68.9389 33.9712 68.9538C35.0358 68.9734 36.1293 68.7882 37.1749 68.4837C37.7361 68.2887 38.2973 68.0936 38.8129 67.8199C39.3694 67.5438 39.566 67.4105 39.9784 67.4679C40.7624 67.585 41.4479 68.1143 42.3087 68.1458C43.1311 68.2201 43.9824 68.0895 44.7834 67.7992C45.6251 67.5066 46.4119 66.9733 47.0285 66.328C47.2972 66.0279 47.5635 65.6874 47.7483 65.3515C47.7459 65.311 47.7867 65.3087 47.7843 65.2681L47.8251 65.2658C48.7049 65.6213 49.515 66.184 50.654 66.0774C50.9801 66.0585 51.2631 66.0015 51.5437 65.9039C51.5868 65.9421 51.6323 66.0207 51.6755 66.0589C51.7186 66.097 51.7641 66.1757 51.8073 66.2138C51.8504 66.2519 51.8935 66.2901 51.9391 66.3687L52.0253 66.445C52.0685 66.4832 52.1092 66.4808 52.1524 66.519L52.2387 66.5952C52.6222 66.8575 53.3797 67.2201 53.8114 66.9106C54.3101 67.0443 54.8016 67.0564 55.3244 66.9042C55.5259 66.8519 55.5069 66.5279 55.3007 66.4992C54.5982 66.3773 53.9028 66.3769 53.2269 66.0097C53.1429 65.9739 53.0567 65.8976 52.9704 65.8213C52.9201 65.6616 52.8291 65.5043 52.8196 65.3423L53.057 65.2066C54.6559 65.9675 56.5908 66.1806 58.2744 65.5954C58.236 65.6383 58.2 65.7216 58.164 65.805C57.7726 66.8031 59.5539 67.1876 58.882 68.2833C58.7332 68.5357 59.0712 68.7194 59.2655 68.5456C59.6541 68.1979 59.8797 67.8597 59.8488 67.3331C59.8322 67.0496 59.3073 66.4704 59.3002 66.3488C59.3366 65.5745 62.1513 66.1431 62.8082 66.1863C63.7098 66.2154 64.645 66.1206 65.5322 65.9066C66.8608 65.5452 68.6187 64.8337 69.2357 63.4974C70.0279 61.6633 69.0392 58.7536 68.563 56.9116C68.424 56.6351 68.0596 56.6969 68.0738 56.9399ZM74.6718 53.6722C74.6168 53.4315 74.2859 53.3694 74.221 53.6576C72.5399 54.2834 71.7032 53.966 71.759 52.8248C71.7039 52.5841 71.6513 52.384 71.5555 52.1456C71.4621 51.9478 71.3279 51.7524 71.1554 51.5998C70.851 51.2923 70.4362 51.1944 70.0935 50.9298C69.8826 50.82 69.6716 50.7103 69.463 50.6411C68.55 49.7186 68.246 48.7201 68.635 47.6815C68.9476 46.0377 70.1787 44.0155 68.2323 42.909C68.0213 42.7993 67.8749 43.0923 68.0067 43.2472C69.7897 45.0541 67.0428 47.7331 67.6987 49.8492C67.8543 50.4092 68.1634 50.7977 68.5924 51.1386C68.8512 51.3675 69.1821 51.4296 69.4386 51.618C70.335 52.257 70.6271 53.0529 70.9718 54.049C71.2711 54.9665 71.731 55.834 72.9155 55.806C74.1815 55.7733 74.8582 54.7587 74.6718 53.6722Z" fill="#442D24"/>
<path d="M29.913 41.129C29.913 41.129 31.8786 56.5672 34.008 63.9791C34.008 63.9791 31.3872 67.5827 28.0703 68.8522C16.3176 73.4386 13.7378 73.4386 11.8541 75.0766C10.8713 75.9365 11.936 79.622 12.5912 82.12C13.1235 84.1675 13.2873 87.5254 13.2873 87.5254H67.4232C67.4232 87.5254 68.0784 74.0119 67.1775 71.2273C66.2766 68.4427 64.2701 70.0397 58.2095 69.3845C52.1489 68.7293 46.4568 65.1667 45.515 63.9791L45.6378 39.4091L29.913 41.129Z" fill="#F3D4CF"/>
<path d="M33.1071 60.3346C35.8098 61.7678 37.4888 61.7678 37.4888 61.7678C37.4888 61.7678 40.7648 61.7678 45.515 57.8776L45.5969 39.3682L29.8721 41.0881C29.913 41.129 31.3463 52.4312 33.1071 60.3346Z" fill="#D4958A"/>
<path d="M27.5789 72.7424C27.5789 72.7424 33.5576 72.6605 35.9327 73.8071C38.3078 74.9947 41.1333 74.7899 42.5256 73.3976C43.9179 72.0053 51.3708 70.5311 51.3708 70.5311C51.3708 70.5311 43.3037 71.3092 41.1333 72.4148C38.963 73.5205 32.0015 71.2682 27.5789 72.7424Z" fill="#D4958A"/>
<path d="M28.4388 68.6884C31.1824 68.156 34.4584 66.0676 34.4584 66.0676L36.9973 68.3198C35.2365 65.0848 31.7967 51.4894 31.7967 51.4894L31.51 51.776C32.2062 56.0758 33.1071 60.7441 34.008 63.9382C34.008 63.9382 31.551 67.2961 28.4388 68.6884Z" fill="#D4958A"/>
<path d="M67.9555 74.9538C67.9146 74.0938 67.8736 73.2748 67.7917 72.4149C67.7508 72.0054 67.6689 71.5549 67.546 71.1045C67.4641 70.8997 67.3822 70.6949 67.3003 70.4492C67.2184 70.2445 67.0546 70.0397 66.8908 69.835C66.727 69.6302 66.5223 69.4664 66.2766 69.3845C66.0309 69.2617 65.8261 69.2208 65.5804 69.1389C65.13 69.057 64.6795 69.057 64.27 69.057C63.4101 69.057 62.5911 69.0979 61.7721 69.0979C60.9531 69.0979 60.1341 69.0569 59.3151 69.016C58.4961 68.975 57.6771 68.8522 56.8581 68.7294C56.4486 68.6475 56.0391 68.5655 55.6705 68.4836L55.0563 68.3199C54.8515 68.2789 54.6468 68.197 54.483 68.156C52.9269 67.7056 51.3708 67.0913 49.8966 66.3542L49.3642 66.0676L48.8319 65.781C48.6681 65.6991 48.4633 65.5762 48.2995 65.4533C48.1357 65.3305 47.931 65.2486 47.7672 65.1257C47.6034 65.0029 47.4396 64.921 47.2348 64.7981L46.7434 64.4296L46.4977 64.2248L46.3749 64.143L46.252 64.061C46.1701 63.9791 46.0882 63.9382 46.0473 63.8563L45.9654 63.7335V45.4697L45.9244 39.3272V39.0815L45.6787 39.1225C43.0579 39.4501 40.3962 39.7367 37.7754 40.0643L29.9539 41.0062V41.2109L29.9949 41.3747L30.0358 41.7433L30.1177 42.4804C30.1587 42.9718 30.2406 43.4222 30.2815 43.9136L30.6501 46.7801C30.8958 48.7048 31.1824 50.6294 31.51 52.5131C31.8376 54.4378 32.1243 56.3215 32.5338 58.2461C32.9023 60.0889 33.2709 61.9316 33.7623 63.7744C33.3118 64.3477 32.8204 64.88 32.2881 65.4124C31.7557 65.9447 31.1415 66.4771 30.5272 66.9685C29.913 67.4189 29.2578 67.8694 28.5616 68.197L28.0293 68.4427C27.8655 68.5246 27.6607 68.5656 27.4969 68.6475L26.3913 69.057C23.4429 70.1626 20.4535 71.2273 17.4642 72.2101L15.2119 72.9472C14.4748 73.1929 13.6968 73.4796 12.9597 73.8481C12.7959 73.93 12.5911 74.0529 12.4273 74.1348C12.2635 74.2576 12.0588 74.3395 11.895 74.5033L11.6493 74.708C11.5674 74.7899 11.4445 74.9128 11.4036 75.0356C11.2807 75.2404 11.2398 75.4861 11.1988 75.6909C11.1169 76.1413 11.1579 76.5508 11.1988 76.9603C11.2398 77.3698 11.3217 77.7793 11.3626 78.1479C11.5264 78.9259 11.6902 79.704 11.895 80.482L12.2226 81.6286C12.3454 81.9972 12.4273 82.3657 12.5092 82.7752C12.673 83.5533 12.7959 84.3313 12.8778 85.1094C12.9597 85.8874 13.0416 86.6655 13.0825 87.4435V87.7711H67.7098V87.4435C67.7917 85.7646 67.8736 84.0856 67.9146 82.4067C67.9555 80.7277 67.9965 79.0487 67.9965 77.3698C67.9965 76.6327 67.9555 75.8137 67.9555 74.9538ZM40.3552 87.3616H26.8008L20.044 87.3207L13.492 87.2797C13.4511 86.5426 13.4101 85.8465 13.3282 85.1094C13.2463 84.3313 13.1644 83.5123 13.0006 82.7343C12.9187 82.3248 12.8368 81.9562 12.714 81.5467L12.4273 80.4001C12.2226 79.6221 12.0588 78.885 11.9359 78.1069C11.854 77.7383 11.8131 77.3288 11.7721 76.9603C11.7312 76.5917 11.7312 76.1822 11.7721 75.8546C11.8131 75.6908 11.854 75.5271 11.9359 75.4042C11.9769 75.3223 12.0178 75.2813 12.0588 75.2404L12.2635 75.0766C12.3864 74.9538 12.5502 74.8719 12.714 74.749C12.8778 74.6671 13.0416 74.5443 13.2054 74.4624C13.9015 74.1348 14.6386 73.8891 15.3757 73.6434L17.628 72.9062C20.6173 71.9234 23.6067 70.8587 26.5551 69.7121L27.6607 69.3026C27.8655 69.2207 28.0293 69.1798 28.234 69.0979L28.8073 68.8522C29.5444 68.4837 30.1996 68.0332 30.8548 67.5418C31.51 67.0504 32.0833 66.518 32.6566 65.9447C33.2299 65.3714 33.7623 64.7572 34.2127 64.102L34.2946 63.9791L34.2537 63.8563C33.7213 62.0135 33.3118 60.1298 32.9023 58.2461C32.4928 56.3624 32.1243 54.4378 31.7967 52.5541C31.4691 50.6704 31.1415 48.7457 30.8139 46.8211L29.913 41.129L37.8163 40.3919C40.3552 40.1462 42.8532 39.9005 45.3921 39.6548L45.3102 45.5516L45.2283 51.6941L45.1054 63.9791V64.143L45.1873 64.2248L45.433 64.5115L45.6787 64.7572L45.8016 64.88L45.9244 64.962L46.1701 65.1667C46.3339 65.2896 46.5387 65.4124 46.7025 65.5352C46.8663 65.6581 47.071 65.7809 47.2348 65.9038C47.3986 66.0266 47.6034 66.1085 47.7672 66.2314C47.931 66.3542 48.1357 66.4361 48.2995 66.559L48.8728 66.8866L49.4461 67.1732C49.6509 67.2551 49.8147 67.378 50.0194 67.4599L50.5927 67.7465C51.0022 67.9103 51.3708 68.0742 51.7803 68.238C52.1898 68.4018 52.5583 68.5655 52.9678 68.6884L53.5821 68.8931C53.7868 68.975 53.9916 69.016 54.1963 69.057C54.4011 69.0979 54.6058 69.1798 54.8106 69.2207L55.4248 69.3845C55.8343 69.5074 56.2438 69.5483 56.6533 69.6302C57.4723 69.794 58.3323 69.876 59.1922 69.9579C60.0522 70.0398 60.8712 70.0397 61.7311 70.0397C62.5911 70.0397 63.4101 69.9988 64.2291 69.9988C65.0481 69.9988 65.8671 70.0397 66.2766 70.5311C66.4813 70.7768 66.6451 71.1044 66.768 71.473C66.8908 71.8415 66.9318 72.2511 67.0137 72.6196C67.1365 73.4386 67.1775 74.2576 67.2184 75.0766C67.2594 75.8956 67.2594 76.7555 67.3003 77.5745C67.3413 80.8096 67.2594 84.0447 67.1365 87.2797C62.7139 87.3207 58.3323 87.3207 53.9097 87.3616H40.3552Z" fill="#C5796D"/>
<path d="M27.6567 68.4346C27.6567 68.4346 28.4838 71.5304 34.7738 74.0612C41.0637 76.5919 51.9564 74.053 52.886 67.8245C52.886 67.8245 55.4904 68.5861 58.6353 68.7417C61.7803 68.8933 65.1546 68.5902 66.0719 68.9711C66.9932 69.356 68.3733 70.2733 68.0661 74.4174C67.759 78.5575 68.1439 83.926 68.1439 83.926L58.7132 84.5403L58.9261 87.7753H19.6059L18.8401 85.5353L12.3987 85.0767C12.3987 85.0767 12.3209 82.1611 11.8622 81.0145C11.4036 79.8638 10.56 76.7966 11.0187 75.2651C11.4773 73.7335 15.6214 72.5051 18.3815 71.5837C21.1374 70.6582 27.6567 68.4346 27.6567 68.4346Z" fill="#0F0F10"/>
<path d="M68.1235 76.6738C68.1398 76.0718 68.1644 75.4698 68.2135 74.8679C68.2586 74.2741 68.3077 73.6517 68.3036 73.0415C68.2914 72.4273 68.2463 71.8048 68.0989 71.1947C67.9474 70.5886 67.7099 69.9703 67.2553 69.483C67.0342 69.2373 66.7639 69.0325 66.4773 68.881C66.207 68.7213 65.8384 68.6148 65.5313 68.5821C64.9007 68.5002 64.2946 68.492 63.6845 68.4838C62.4683 68.4715 61.2643 68.4879 60.0604 68.4551C57.6648 68.4346 55.2733 68.1111 52.9842 67.4805L52.5829 67.3699L52.5215 67.7753C52.3372 68.9547 51.7598 70.0603 50.9204 70.9408C50.085 71.8294 49.0367 72.5255 47.9187 73.0702C45.6706 74.1513 43.1521 74.659 40.6501 74.745C39.397 74.7819 38.1358 74.6959 36.9032 74.4543C36.2889 74.3314 35.6829 74.1676 35.0932 73.9588C34.7983 73.8564 34.5076 73.7213 34.2168 73.6066C33.922 73.4879 33.6313 73.365 33.3487 73.2217C32.2021 72.6934 31.0924 72.0669 30.0973 71.2929C29.5977 70.908 29.1268 70.4821 28.7132 70.0071C28.5012 69.7734 28.3068 69.5243 28.1317 69.2618C28.0001 69.0655 27.8825 68.8603 27.7795 68.6476C27.7631 68.6107 27.7467 68.578 27.7304 68.5411C27.7099 68.5002 27.714 68.4797 27.6689 68.406L20.9531 70.5313L17.5625 71.6165C16.4405 71.9686 15.3143 72.3208 14.2087 72.7467C13.6559 72.9596 13.103 73.193 12.5666 73.4715C12.0342 73.754 11.4937 74.0612 11.0514 74.5689C10.9409 74.6959 10.8467 74.8474 10.7689 75.0112C10.687 75.1955 10.6706 75.3429 10.6255 75.5026C10.5764 75.8179 10.5477 76.1332 10.5518 76.4404C10.5559 77.0546 10.6296 77.6566 10.732 78.2504C10.8385 78.84 10.9736 79.4256 11.1374 80.003C11.2193 80.2897 11.3094 80.5763 11.4077 80.863C11.5224 81.1701 11.6002 81.383 11.6616 81.6615C11.8909 82.7549 11.9564 83.9424 11.9933 85.089L12.0056 85.4453L12.3618 85.4739C14.4134 85.6418 16.4691 85.7811 18.5248 85.9367L19.2005 87.9145L19.2988 88.2012H19.6018C22.8778 88.2012 26.1538 88.2258 29.4339 88.2053L39.266 88.1603L49.0981 88.0947L58.9302 87.9842L59.1513 87.9801L59.1349 87.763L58.9015 84.7C60.4167 84.5812 61.9277 84.4829 63.4429 84.3765L68.1562 84.053L68.2791 84.0448L68.2709 83.9219C68.1235 81.5059 68.062 79.0857 68.1235 76.6738ZM63.4183 84.0857C61.8458 84.1799 60.2733 84.2823 58.7009 84.3642L58.533 84.3724L58.5412 84.5444L58.709 87.5624L49.094 87.4559L39.2619 87.3904L29.4298 87.3453C26.2521 87.3249 23.0784 87.3453 19.9007 87.3494L19.2332 85.3961L19.1432 85.134L18.8688 85.1136C16.8377 84.9743 14.8065 84.8228 12.7754 84.6959C12.7181 83.623 12.6321 82.5665 12.3905 81.4854C12.325 81.1906 12.198 80.8507 12.0997 80.6091C12.0015 80.3429 11.9114 80.0685 11.8295 79.7942C11.6616 79.2413 11.5224 78.6803 11.4159 78.1193C11.3094 77.5542 11.2316 76.985 11.2193 76.4281C11.207 76.1455 11.2316 75.8753 11.2685 75.6091C11.2971 75.4862 11.3217 75.3429 11.3626 75.2528C11.4077 75.1545 11.465 75.0522 11.551 74.9539C11.8745 74.5649 12.3659 74.2495 12.8573 73.9752C13.3569 73.7008 13.8852 73.4592 14.4216 73.2381C15.4945 72.7917 16.6043 72.4109 17.7181 72.03C18.836 71.6451 19.9089 71.2602 21.0064 70.8671L27.6485 68.4674C27.6239 68.4715 27.6608 68.5247 27.6648 68.5616C27.6771 68.6025 27.6935 68.6353 27.7099 68.6762C27.7386 68.754 27.7754 68.8237 27.8082 68.8974C27.8778 69.0448 27.9556 69.184 28.0375 69.3233C28.2054 69.5976 28.3897 69.8638 28.5944 70.1136C29.0028 70.6121 29.4596 71.0688 29.9581 71.4772C30.9449 72.3044 32.0465 72.9842 33.1972 73.5657C33.4838 73.7172 33.7746 73.8482 34.0694 73.9752C34.3643 74.1021 34.6509 74.2413 34.958 74.3601C35.5641 74.5935 36.1865 74.7778 36.8213 74.9211C38.0866 75.2037 39.3847 75.3224 40.6788 75.3142C43.2668 75.2938 45.8589 74.7737 48.2299 73.6721C49.4052 73.1111 50.5313 72.3863 51.4527 71.424C52.284 70.564 52.931 69.4707 53.189 68.2708C55.4387 68.8343 57.7494 69.1176 60.0686 69.1144C61.2848 69.1185 62.4969 69.0735 63.7009 69.0571C64.2987 69.053 64.9048 69.0448 65.4781 69.1062C65.7729 69.139 65.9941 69.1922 66.2561 69.3314C66.5059 69.4543 66.7271 69.6181 66.9154 69.8146C67.3045 70.2078 67.5338 70.7483 67.6894 71.3052C67.8368 71.8662 67.8982 72.46 67.9269 73.0497C67.9433 73.6476 67.9146 74.2373 67.8819 74.8474C67.8532 75.4535 67.8368 76.0595 67.8204 76.6656C67.7836 79.0489 67.8696 81.4281 68.0252 83.8073L63.4183 84.0857Z" fill="black"/>
<path d="M23.974 38.8049C23.974 38.8049 22.0675 35.5606 20.1863 34.3988C18.305 33.2371 16.1324 33.3764 16.1324 33.3764C16.1324 33.3764 14.9663 34.306 15.6574 38.5359C15.6574 38.5359 17.7323 42.7831 21.0672 44.1732C21.0672 44.1732 23.4307 44.555 24.5812 44.2167C24.5769 44.2129 25.268 41.6569 23.974 38.8049Z" fill="#F3D4CF"/>
<path d="M23.6976 40.1537C23.6976 40.1537 22.0121 37.0629 21.0029 36.3268C19.9978 35.5904 17.6881 34.4577 17.1483 35.24C16.6125 36.0221 16.707 38.361 16.707 38.361C16.707 38.361 17.4593 40.1784 19.4369 41.0681C21.4101 41.9539 23.7031 41.9172 23.7031 41.9172L23.6976 40.1537Z" fill="#E4B3AB"/>
<path d="M15.4374 37.2234C15.4732 37.6648 15.5294 38.109 15.5895 38.5489L15.59 38.557L15.5948 38.5689C15.892 39.1677 16.2263 39.7473 16.5956 40.3041C16.9631 40.8627 17.3732 41.3901 17.8106 41.8994C18.2555 42.4001 18.7426 42.8615 19.268 43.2878C19.8008 43.7015 20.3787 44.0593 21.0037 44.3287L21.0204 44.3357L21.0408 44.3385C21.6342 44.4267 22.2218 44.4867 22.8192 44.5095C23.1158 44.519 23.4161 44.5241 23.719 44.5047C24.0175 44.4815 24.3234 44.4456 24.6217 44.3532L24.6971 44.328L24.713 44.2578C24.8173 43.787 24.8572 43.3245 24.8602 42.8561C24.8633 42.3878 24.834 41.9215 24.7687 41.4616C24.7023 41.0027 24.6034 40.5492 24.4727 40.1046C24.3513 39.6564 24.1785 39.2278 23.9897 38.8043C23.5628 38.0745 23.0817 37.3848 22.5885 36.6958C22.0839 36.0198 21.5515 35.3537 20.9079 34.7884C20.5862 34.5078 20.2262 34.2622 19.8485 34.0584C19.4668 33.8549 19.0644 33.7097 18.6553 33.5853C17.8331 33.3408 16.9803 33.253 16.1272 33.2914L16.0949 33.2935L16.0798 33.3107C15.742 33.6784 15.6362 34.1248 15.5337 34.5589C15.4436 34.9962 15.407 35.4463 15.3983 35.8906C15.3897 36.3349 15.4013 36.7779 15.4374 37.2234ZM15.4874 35.889C15.5044 35.4482 15.5458 35.01 15.6445 34.5803C15.6919 34.3655 15.7599 34.1576 15.8449 33.9609C15.9266 33.7765 16.0362 33.5863 16.1621 33.4601C16.9768 33.4568 17.7966 33.5996 18.5774 33.8305C19.3632 34.0773 20.1157 34.4402 20.7528 34.9653C21.3938 35.49 21.9676 36.1046 22.5029 36.7542C23.0381 37.3998 23.5157 38.0979 23.9617 38.8102C24.1384 39.2345 24.3031 39.6636 24.4124 40.1125C24.5375 40.5564 24.5986 41.0125 24.6435 41.4696C24.6884 41.9267 24.6848 42.387 24.6525 42.8409C24.6224 43.2662 24.5643 43.6974 24.4681 44.1025C24.2203 44.1591 23.9624 44.1838 23.6994 44.1925C23.4124 44.2068 23.1204 44.2052 22.8317 44.1911C22.2585 44.1668 21.6787 44.1022 21.1139 44.0163C20.5337 43.7522 19.9743 43.4298 19.4592 43.0395C18.9474 42.6367 18.4614 42.1915 18.0177 41.7111C17.5757 41.2245 17.1618 40.7127 16.7782 40.1784C16.3961 39.6452 16.0369 39.0902 15.7293 38.5155L15.6242 37.875C15.5903 37.6573 15.5722 37.4346 15.5464 37.2164C15.5023 36.7714 15.4788 36.3333 15.4874 35.889Z" fill="#E4B3AB"/>
<path d="M17.09 36.3933C17.145 36.1084 17.2126 35.8308 17.3084 35.5515C17.3325 35.4847 17.3645 35.4133 17.4009 35.3498C17.4414 35.286 17.4852 35.2098 17.5849 35.1871C17.7666 35.1836 17.8804 35.2578 18.0211 35.3099C18.5419 35.5519 19.0329 35.8542 19.4843 36.2109C19.7099 36.3921 19.9246 36.5945 20.0981 36.8484C20.179 36.9778 20.2606 37.1193 20.28 37.3016C20.2904 37.4029 20.2851 37.4481 20.2897 37.5212L20.3066 37.728C20.4413 38.849 20.6811 39.9713 20.8527 41.1021L20.8248 41.1079C20.6531 40.5603 20.5094 40.0068 20.3738 39.4528C20.2339 38.8949 20.1262 38.335 20.0459 37.7611L20.0202 37.5426L20.0072 37.3354C20.0006 37.2298 19.9407 37.1113 19.8732 37.0015C19.7339 36.778 19.5471 36.5698 19.3451 36.3789C18.9413 35.997 18.4866 35.6429 17.9824 35.4021C17.8615 35.3446 17.7122 35.2849 17.6075 35.2916C17.5164 35.322 17.4533 35.4769 17.4126 35.6019C17.3239 35.8645 17.2893 36.1521 17.2541 36.4317C17.1962 36.9941 17.1673 37.5669 17.166 38.1297C17.1666 38.2683 17.1676 38.415 17.1835 38.5404C17.1838 38.6097 17.2797 38.7218 17.3666 38.8182C17.5489 39.0185 17.7589 39.2089 17.9684 39.3912C18.3146 39.6911 18.6726 39.9862 19.0341 40.2729C19.0473 39.9009 19.0605 39.529 19.0614 39.1538C19.0625 38.9131 19.0599 38.6768 19.0493 38.4409C19.0399 38.2254 19.0262 38.0061 18.9851 37.8007C18.9241 37.7965 18.8514 37.7971 18.7832 37.8056C18.69 37.8171 18.5979 37.8367 18.5079 37.864C18.3252 37.9165 18.1478 37.9891 17.9751 38.0736L17.9613 38.046C18.1201 37.9338 18.2919 37.8371 18.4771 37.76C18.5677 37.7215 18.6626 37.6869 18.7623 37.6642C18.8659 37.6412 18.9578 37.6231 19.0801 37.6397L19.1249 37.6449L19.1403 37.697C19.2162 37.9408 19.2435 38.1838 19.2748 38.4264C19.298 38.6696 19.313 38.9092 19.3241 39.1532C19.3422 39.6373 19.352 40.1179 19.3378 40.604L19.3286 40.9105L19.0827 40.7265C18.6244 40.3807 18.1856 40.0215 17.7573 39.6372C17.5471 39.4427 17.3366 39.2442 17.1407 39.0203C17.0926 38.9622 17.0445 38.9041 16.9999 38.8377C16.9775 38.8024 16.9551 38.7672 16.9362 38.7235C16.9133 38.6801 16.9009 38.6116 16.8986 38.575C16.8847 38.4169 16.892 38.2737 16.8949 38.1267C16.9146 37.5342 16.98 36.9631 17.09 36.3933Z" fill="#C5796D"/>
<path d="M52.0438 37.4247C52.0438 37.4247 53.5295 33.963 55.2505 32.5705C56.9714 31.1779 59.144 31.0386 59.144 31.0386C59.144 31.0386 60.4171 31.8119 60.2602 36.0962C60.2602 36.0962 58.7328 40.5742 55.5983 42.379C55.5983 42.379 53.3015 43.0594 52.1179 42.8707C52.1217 42.8664 51.1167 40.4192 52.0438 37.4247Z" fill="#F3D4CF"/>
<path d="M52.4947 38.7232C52.4947 38.7232 53.779 35.4427 54.6877 34.584C55.5924 33.7256 57.7415 32.308 58.3751 33.0154C59.0046 33.7229 59.2043 36.0552 59.2043 36.0552C59.2043 36.0552 58.6861 37.9537 56.836 39.088C54.9897 40.2179 52.7105 40.4733 52.7105 40.4733L52.4947 38.7232Z" fill="#E4B3AB"/>
<path d="M60.1897 33.4343C60.1256 32.9947 60.0333 32.5569 59.8889 32.1305C59.733 31.7131 59.5723 31.2837 59.1913 30.9621L59.1741 30.9469L59.1418 30.949C58.2908 31.0198 57.4517 31.2161 56.6707 31.5633C56.2804 31.7389 55.8994 31.9344 55.5462 32.185C55.197 32.4353 54.8705 32.7249 54.5865 33.0444C54.0187 33.6873 53.5739 34.4161 53.1578 35.1511C52.7546 35.8975 52.3675 36.6428 52.0312 37.4216C51.901 37.8655 51.779 38.313 51.7147 38.7731C51.6406 39.2309 51.5992 39.6934 51.5907 40.157C51.5793 40.6218 51.6126 41.0879 51.6741 41.5521C51.7357 42.0163 51.8331 42.4701 51.9954 42.9238L52.0199 42.9914L52.0979 43.0067C52.4053 43.0603 52.7132 43.0569 53.0123 43.0418C53.3151 43.0224 53.6086 42.9832 53.9054 42.9316C54.4952 42.8327 55.0706 42.6982 55.6482 42.5349L55.6681 42.5296L55.6838 42.5204C56.2701 42.1735 56.7987 41.7447 57.2755 41.2663C57.7436 40.7804 58.1689 40.2565 58.5477 39.703C58.9182 39.1459 59.2589 38.5664 59.5536 37.9653C59.8484 37.3643 60.1141 36.7529 60.3296 36.1162L60.3328 36.1038L60.3323 36.0957C60.3329 35.6519 60.3334 35.2082 60.3175 34.7614C60.2938 34.3192 60.25 33.8782 60.1897 33.4343ZM60.2085 34.7684C60.2101 34.9881 60.2201 35.2114 60.2136 35.4316L60.1895 36.0804C59.9563 36.6938 59.6694 37.2903 59.3567 37.864C59.0403 38.442 58.6986 39.0053 58.3187 39.5426C57.9385 40.0767 57.5158 40.5789 57.0548 41.0444C56.5931 41.4927 56.0836 41.8885 55.5355 42.2246C54.9859 42.382 54.4186 42.516 53.8533 42.6174C53.5686 42.6682 53.2791 42.7071 52.9927 42.7296C52.7345 42.7502 52.4718 42.763 52.2189 42.7385C52.0728 42.3489 51.9613 41.9286 51.8783 41.5105C51.7895 41.0643 51.7325 40.608 51.7159 40.149C51.7033 39.6898 51.7068 39.2295 51.7755 38.7733C51.8278 38.314 51.9376 37.8673 52.0598 37.4238C52.4092 36.6605 52.7957 35.9071 53.2499 35.1981C53.6961 34.4896 54.1922 33.8024 54.7625 33.2C55.3288 32.5978 56.0259 32.142 56.7786 31.7966C57.5202 31.4681 58.3197 31.2215 59.1283 31.1208C59.2729 31.2296 59.4015 31.4046 59.5055 31.577C59.6184 31.7611 59.7079 31.9589 59.7817 32.1659C59.929 32.5757 60.0292 33.009 60.1011 33.444C60.1614 33.888 60.1929 34.3256 60.2085 34.7684Z" fill="#E4B3AB"/>
<path d="M58.5897 34.1813C58.4997 33.9057 58.3982 33.639 58.2685 33.3741C58.2362 33.311 58.1957 33.2442 58.1516 33.1859C58.1035 33.1278 58.0506 33.0578 57.9489 33.048C57.7682 33.0678 57.6646 33.156 57.5315 33.2257C57.0449 33.5324 56.5953 33.8952 56.1919 34.3068C55.9907 34.5155 55.8027 34.7437 55.6621 35.0178C55.598 35.1565 55.5347 35.3074 55.538 35.4907C55.5403 35.5925 55.5512 35.6366 55.5557 35.7097L55.5646 35.9171C55.5704 37.0463 55.4719 38.1904 55.4422 39.3341L55.4706 39.3364C55.5728 38.7711 55.6466 38.2036 55.7123 37.6367C55.7818 37.0654 55.8191 36.4962 55.8274 35.9166L55.8258 35.6965L55.8129 35.4893C55.8063 35.3837 55.851 35.2585 55.9043 35.1409C56.0147 34.9014 56.1742 34.6709 56.3508 34.4557C56.704 34.0252 57.1111 33.6157 57.5813 33.3123C57.6941 33.2398 57.8347 33.1614 57.9394 33.1547C58.0336 33.1731 58.1154 33.3187 58.1713 33.4375C58.292 33.6866 58.3621 33.9676 58.4317 34.2404C58.559 34.7909 58.6589 35.3554 58.7301 35.9135C58.7468 36.0511 58.7639 36.1968 58.7637 36.3232C58.7721 36.392 58.6908 36.5155 58.6166 36.6222C58.4607 36.8443 58.276 37.06 58.0909 37.2677C57.7847 37.6095 57.4662 37.9481 57.1432 38.2787C57.0839 37.9115 57.0246 37.5442 56.9771 37.1721C56.946 36.9335 56.9193 36.6987 56.9006 36.4634C56.8831 36.2483 56.8694 36.029 56.8847 35.8201C56.9446 35.8081 57.0168 35.7993 57.0855 35.799C57.1784 35.7971 57.272 35.8074 57.3659 35.8218C57.5537 35.8505 57.7387 35.8998 57.9204 35.9615L57.9307 35.9323C57.7593 35.8413 57.5768 35.7674 57.3835 35.7146C57.2871 35.6864 57.1885 35.6668 57.0887 35.6561C56.983 35.6466 56.8896 35.6403 56.7704 35.6725L56.7266 35.6834L56.7178 35.737C56.6728 35.9886 56.676 36.2331 56.675 36.4778C56.6822 36.7221 56.6971 36.9617 56.7164 37.2051C56.7586 37.6877 56.8086 38.1657 56.8831 38.6461L56.9303 38.949L57.1514 38.7349C57.563 38.3333 57.9537 37.9208 58.3308 37.4847C58.5152 37.2649 58.6994 37.041 58.8659 36.7938C58.9064 36.73 58.9469 36.6662 58.9828 36.5946C59.0007 36.5568 59.0185 36.5189 59.0318 36.4732C59.0492 36.4272 59.0529 36.3577 59.0507 36.3211C59.0448 36.1624 59.0198 36.0213 58.9986 35.8759C58.9074 35.3009 58.7707 34.7342 58.5897 34.1813Z" fill="#C5796D"/>
<path d="M51.2988 17.4215C48.405 14.5945 46.3999 12.3619 39.2289 11.1525C38.4918 11.0369 34.2518 11.3086 33.5351 11.5174C26.5727 13.6327 24.8627 16.1034 22.3454 19.2772C19.6768 22.6236 19.247 31.2814 19.247 31.2814C19.4912 35.1738 20.5937 44.3441 25.8185 50.0748C33.5711 58.6153 39.3482 58.2857 39.3482 58.2857C39.3482 58.2857 45.0824 57.9182 51.7433 48.4132C56.21 42.0613 56.1574 32.8237 55.9132 28.9313C55.8728 28.9339 54.3643 20.4003 51.2988 17.4215Z" fill="#F3D4CF"/>
<path d="M39.2289 11.1525C38.4918 11.0369 34.2518 11.3086 33.5351 11.5174C26.5727 13.6327 24.8627 16.1034 22.3454 19.2772C19.6768 22.6236 19.247 31.2814 19.247 31.2814C19.4912 35.1738 20.5937 44.3441 25.8185 50.0748C33.5711 58.6153 39.3482 58.2857 39.3482 58.2857C39.3482 58.2857 45.0824 57.9182 51.7433 48.4132C56.21 42.0613 56.1574 32.8237 55.9132 28.9313C55.9132 28.9313 54.4047 20.3977 51.3392 17.4189C48.3646 14.5971 46.3595 12.3645 39.2289 11.1525ZM54.1182 22.9401C54.4645 23.9356 54.6896 24.9389 54.9552 25.9396C55.1803 26.9429 55.365 27.9488 55.5498 28.9546C55.6573 31.9602 55.4013 34.9891 54.898 37.9524C54.6262 39.4353 54.3114 40.8803 53.8326 42.2951C53.5931 43.0025 53.3537 43.7099 53.0714 44.3793C52.789 45.0488 52.4663 45.7208 52.1007 46.3549L51.5509 47.2857C51.4399 47.4556 50.2848 49.0766 50.2848 49.0766L48.895 50.8348L46.5767 53.3037C45.5046 54.3088 44.3491 55.2784 43.1002 56.0505L42.6308 56.3249L42.1615 56.5992C41.8487 56.7821 41.5332 56.9244 41.1774 57.0694L40.6627 57.2652C40.5037 57.3161 40.3447 57.367 40.1453 57.4205C39.9864 57.4714 39.4658 57.6391 38.9845 57.6577C38.9845 57.6577 38.414 57.6128 38.2096 57.5852C38.0455 57.5551 37.8411 57.5275 37.677 57.4973L37.1419 57.3687C36.8112 57.2678 36.4401 57.1694 36.1069 57.028L35.6096 56.8563L35.1098 56.6441C33.7768 56.0782 32.4716 55.3069 31.2824 54.4468L29.5352 53.0933L27.8611 51.613L27.4319 51.2334L27.043 50.8512L26.2627 50.0463C25.7425 49.5098 25.2627 48.9706 24.8182 48.3477C24.3762 47.7654 23.9317 47.1426 23.5654 46.474C23.2016 45.846 22.8353 45.1774 22.5069 44.4657C22.1809 43.7945 21.8929 43.0802 21.6452 42.3633C21.3975 41.6465 21.1498 40.9296 20.9425 40.2101C20.7351 39.4906 20.5278 38.7712 20.3987 38.006C20.2318 37.2839 20.1027 36.5187 19.9761 35.7941C19.7205 34.3042 19.586 32.8066 19.4918 31.3064C19.5545 30.3661 19.6978 29.4206 19.8009 28.4777C19.9443 27.5322 20.128 26.5841 20.3143 25.6766C20.541 24.7664 20.7652 23.8158 21.0752 22.941C21.2087 22.4847 21.3852 22.0663 21.5617 21.6479C21.7381 21.2295 22.4938 19.7684 23.8996 18.2006C24.5025 17.4699 25.1483 16.7772 25.7991 16.1655C27.1412 14.9397 28.7838 13.9795 30.4795 13.2195L31.1104 12.9348C33.7531 11.825 35.3348 11.7684 35.8168 11.6968C36.7431 11.5968 37.7122 11.4695 38.641 11.4751C39.9226 11.4825 41.4225 11.8668 41.4225 11.8668C42.3666 12.0505 43.2727 12.2774 44.1866 12.6259C44.3103 12.6587 44.8505 12.8683 44.8505 12.8683C45.06 12.977 45.9335 13.3281 46.1456 13.4774C46.3551 13.5861 48.3799 14.8404 49.0692 15.4883C49.799 16.1335 50.4883 16.7814 51.1802 17.4698C51.915 18.1962 52.4581 19.0977 52.923 20.0449C53.4282 20.9895 53.8124 21.9419 54.1182 22.9401Z" fill="#C5796D"/>
<path d="M32.4936 48.9017C32.4936 48.9017 33.8572 48.7167 34.5922 48.2997C35.9279 47.5421 37.4869 47.0804 39.211 47.0949C41.5574 47.1127 43.4566 48.7351 45.0421 48.2398C45.0421 48.2398 43.3579 49.9617 41.579 50.4404C39.8 50.9191 36.9965 51.0528 35.5016 50.5188C34.0062 49.9768 32.4936 48.9017 32.4936 48.9017Z" fill="#DA7C87"/>
<path d="M38.9607 50.9127C37.6762 50.9887 36.3612 50.9059 35.4735 50.5889C33.987 50.0584 32.4617 48.9761 32.4487 48.9648L32.2816 48.8462L32.4844 48.8181C32.4967 48.8174 33.8396 48.6295 34.5509 48.226C35.9972 47.4055 37.5636 46.9956 39.2097 47.0066C40.3234 47.013 41.3494 47.382 42.2542 47.71C43.2971 48.086 44.1975 48.4102 45.0163 48.153L45.3293 48.0541L45.1024 48.2844C45.0332 48.3568 43.3828 50.0286 41.6038 50.5074C40.8595 50.712 39.919 50.856 38.9607 50.9127ZM32.7096 48.9493C33.1414 49.241 34.3485 50.013 35.5294 50.437C37.0495 50.9816 39.8431 50.8203 41.5575 50.3575C42.9299 49.9872 44.262 48.8482 44.7687 48.3805C43.9867 48.507 43.1492 48.2072 42.1986 47.8659C41.3065 47.5452 40.297 47.1792 39.2119 47.1712C37.5943 47.1584 36.0563 47.5627 34.6375 48.3654C34.0565 48.693 33.1228 48.8807 32.7096 48.9493Z" fill="#D26D79"/>
<path d="M31.5407 48.2595C32.0001 48.6681 32.5973 48.9138 33.2016 49.0078C33.8149 49.1133 34.4268 48.9919 35.049 48.9058C35.6709 48.8157 36.288 48.7139 36.9054 48.6162C37.5269 48.5181 38.1397 48.4126 38.7883 48.3569C39.4425 48.3248 40.0743 48.3974 40.6962 48.4426C41.0097 48.4731 41.3186 48.4958 41.6273 48.5146C41.9365 48.5413 42.2447 48.5522 42.5481 48.5514C42.8517 48.5545 43.1582 48.5376 43.4554 48.5012C43.7605 48.4605 44.0603 48.4002 44.3596 48.3319C44.6589 48.2636 44.957 48.1755 45.2503 48.0757C45.5439 47.9798 45.8322 47.8644 46.1151 47.7293C46.1272 47.7247 46.1397 47.728 46.1445 47.7396C46.149 47.7474 46.1457 47.7595 46.138 47.7679C45.6319 48.1462 45.0493 48.4132 44.4468 48.6217C44.1458 48.7298 43.8347 48.8067 43.5191 48.8759C43.1988 48.9374 42.8726 48.9674 42.5495 48.9812C42.2259 48.9872 41.9054 48.977 41.5886 48.9587C41.2715 48.9364 40.9575 48.898 40.6438 48.8635C40.0199 48.7865 39.3992 48.6934 38.7967 48.6988C38.1916 48.7283 37.5612 48.8148 36.9427 48.8928C36.32 48.971 35.6976 49.0531 35.0701 49.1196C34.7561 49.1489 34.4467 49.1859 34.1279 49.2035C33.8094 49.2251 33.4841 49.2032 33.1725 49.1368C32.5458 49.0122 31.9506 48.7306 31.5015 48.2896C31.4973 48.2854 31.4947 48.2799 31.4943 48.274C31.494 48.2682 31.4959 48.2624 31.4996 48.2578C31.5157 48.2529 31.5321 48.252 31.5407 48.2595Z" fill="#CB5F6C"/>
<path d="M22.9285 29.5395C23.94 29.6794 24.9494 29.7811 25.9632 29.8878L27.4805 30.0285L28.9946 30.1452C29.4981 30.1793 30.0037 30.2516 30.5103 30.3097C31.0169 30.3678 31.5179 30.3683 32.0227 30.3119C32.5226 30.2599 33.025 30.17 33.5249 30.0465C34.0252 29.9183 34.523 29.7565 35.0131 29.4989L35.0062 29.322C34.4939 29.0681 33.9847 28.9098 33.4779 28.7849C32.9711 28.6601 32.4661 28.5783 31.9589 28.5297C31.452 28.4763 30.9504 28.4853 30.4502 28.5421C29.9497 28.6036 29.4483 28.6793 28.9447 28.7167L27.4377 28.8436L25.9338 28.9945C24.9335 29.108 23.9288 29.2164 22.9262 29.3631L22.9285 29.5395Z" fill="#543C32"/>
<path d="M52.2532 27.2854C51.3508 27.592 50.4382 27.8721 49.5303 28.1513L48.1638 28.5592L46.7936 28.9487C46.335 29.0774 45.8857 29.228 45.4308 29.3748C44.9749 29.5172 44.5108 29.6184 44.0385 29.6785C43.5652 29.734 43.0873 29.7667 42.5984 29.7683C42.114 29.7691 41.6196 29.7433 41.115 29.6435L41.0819 29.5028C41.5018 29.206 41.9411 28.9815 42.3812 28.7852C42.826 28.5881 43.2726 28.4238 43.7293 28.286C44.1852 28.1437 44.6511 28.0516 45.1244 27.9961C45.5986 27.9451 46.0746 27.9033 46.5452 27.834L47.9577 27.6309L49.3748 27.4505C50.3214 27.3394 51.267 27.2238 52.2237 27.1392L52.2532 27.2854Z" fill="#543C32"/>
<path d="M42.1081 42.1985C41.9364 41.8512 41.6872 41.5618 41.408 41.3109C41.6294 41.6102 41.8317 41.9271 41.962 42.2608C42.0252 42.4277 42.0687 42.6041 42.0503 42.7641C42.0393 42.8462 42.0191 42.9127 41.9709 42.985C41.9268 43.057 41.8787 43.1294 41.8174 43.1862C41.5859 43.4372 41.2362 43.5492 40.886 43.5228C40.7111 43.5137 40.5305 43.4764 40.3604 43.414C40.1994 43.3673 40.0447 43.2918 39.8905 43.2243C40.0112 43.017 40.1191 42.7984 40.2104 42.5726C39.8835 42.9193 39.5812 43.2685 39.252 43.5788C39.0874 43.7318 38.9227 43.8849 38.7436 44.0023C38.5688 44.1234 38.3763 44.2213 38.2184 44.2233C38.1782 44.2299 38.1452 44.2198 38.1086 44.2181C38.075 44.1999 38.0468 44.2017 38.0001 44.168C37.912 44.1207 37.8186 44.0534 37.7255 43.9902C37.5392 43.8637 37.356 43.7207 37.1692 43.5861C36.7992 43.3085 36.4251 43.0312 36.0281 42.7757C36.2235 43.0482 36.4457 43.2945 36.6716 43.5366C36.4991 43.6291 36.3215 43.7056 36.1424 43.7578C35.9191 43.8169 35.6814 43.8403 35.4861 43.7633C35.0907 43.5972 34.8356 43.1494 34.8755 42.7519C34.8853 42.6495 34.9128 42.5703 34.964 42.4815C35.0187 42.3844 35.0815 42.2867 35.1443 42.189C35.2741 41.9975 35.412 41.8054 35.5585 41.6209L35.7762 41.3423C35.8627 41.2349 35.9252 41.1332 35.9915 41.0271C36.1241 40.815 36.2398 40.5918 36.33 40.3499C36.4205 40.112 36.4683 39.8402 36.494 39.6023C36.5193 39.3605 36.5447 39.1186 36.5539 38.8778C36.5764 38.3959 36.5908 37.9145 36.5727 37.4311C36.5447 36.4678 36.4598 35.5001 36.2111 34.5714C36.2912 35.5272 36.2821 36.4806 36.2485 37.4315C36.2255 37.9053 36.2027 38.3832 36.1593 38.8542C36.1377 39.0918 36.1159 39.3253 36.09 39.559C36.0603 39.7971 36.0243 39.9989 35.9402 40.2079C35.8641 40.4164 35.7635 40.6224 35.646 40.8172C35.5872 40.9146 35.5247 41.0164 35.4607 41.0938C35.3858 41.1922 35.3147 41.2864 35.2438 41.3846C35.1021 41.5809 34.969 41.7849 34.8401 41.9927C34.7779 42.0985 34.7115 42.2046 34.6579 42.3179C34.5926 42.4402 34.5538 42.5974 34.5541 42.7318C34.5448 43.2943 34.9207 43.7955 35.4327 43.9459C35.6961 44.0104 35.956 43.953 36.181 43.8571C36.3667 43.7801 36.5342 43.6716 36.6928 43.5515C36.7839 43.6475 36.871 43.7437 36.966 43.8353C37.1346 44.0037 37.3103 44.1553 37.4983 44.3101C37.5922 44.3856 37.6899 44.4567 37.8034 44.5227C37.8501 44.5563 37.9375 44.5914 38.0121 44.6192C38.0901 44.6346 38.1721 44.6497 38.2488 44.6448C38.5597 44.6248 38.7895 44.4757 38.991 44.3284C39.1877 44.1692 39.3595 43.9994 39.5095 43.8066C39.6563 43.6261 39.7861 43.4346 39.9034 43.2357C40.1845 43.4538 40.5124 43.6404 40.8883 43.6896C41.0806 43.718 41.2868 43.7089 41.4777 43.6518C41.6684 43.5907 41.848 43.4815 41.9888 43.334C42.0612 43.2602 42.1166 43.1752 42.1681 43.0904C42.2235 43.0054 42.2608 42.889 42.2625 42.7871C42.2609 42.5674 42.196 42.372 42.1081 42.1985Z" fill="#C5796D"/>
<path d="M74.2742 59.5087C74.434 59.4515 74.4987 59.161 74.2927 59.1253C68.9921 57.764 73.4817 52.9135 72.2626 49.497C71.4817 47.2971 69.4297 47.083 68.1943 45.4832C66.6031 43.3786 69.3578 40.2545 69.5903 37.9474C69.7961 35.8807 68.5496 34.0903 67.8315 32.269C67.9034 31.4047 67.9726 30.4928 68.0852 29.6261C68.2218 28.4714 68.3178 27.319 68.2105 26.1785C68.24 25.9857 68.2668 25.7452 68.2935 25.5047C68.5445 22.8142 67.527 20.0548 65.5977 18.4479C64.61 17.598 63.5659 17.1814 62.4573 17.0554C62.4295 16.5792 62.3638 16.153 62.2169 15.7316C61.9202 14.8411 61.4286 14.1055 60.7827 13.5222C60.1369 12.939 59.3802 12.5533 58.5939 12.3606C57.2302 12.0583 55.608 12.918 54.3652 11.8919C52.8212 10.5969 52.5142 8.13026 50.7319 6.94474C48.9523 5.80683 47.1609 5.86416 45.4251 6.87386C45.4251 6.87386 45.3844 6.87624 45.3872 6.92386C44.709 6.48584 44.0013 6.24068 43.2612 6.14075C42.524 6.08845 41.8847 6.31709 41.1936 6.35763C40.7058 6.38626 40.2937 6.31487 39.8789 6.19587C39.7514 6.10779 39.6266 6.06732 39.4991 5.97924C39.1222 5.81023 38.7073 5.69123 38.2953 5.61984C38.0052 5.5413 37.7585 5.508 37.5118 5.47469C35.7878 5.28915 34.0269 5.87029 32.6552 7.52756C31.5864 8.78481 30.8918 10.1634 29.2741 10.4017C25.6329 9.51637 20.5601 12.0597 21.2194 16.3692L21.2305 16.5596C19.5517 15.7503 17.0313 15.8982 15.7121 16.3578C14.3522 16.8199 13.0662 17.851 12.5916 19.5034C12.1843 20.9129 12.2916 22.0534 10.9483 22.8012C10.1576 23.2298 9.22258 23.2847 8.43734 23.8085C7.4544 24.4396 6.46413 25.6445 6.59088 27.1182C6.66208 27.6397 6.89311 28.1039 7.16479 28.5658C7.38748 28.8872 7.68592 29.1086 7.90862 29.43C8.48985 30.3037 9.12107 32.0346 8.73224 33.0608C8.44869 33.7942 7.89346 34.0657 7.86215 34.9276C7.79575 35.8871 8.38708 36.2347 8.4805 37.137C8.63957 38.4656 7.21502 39.2181 7.82402 40.568C7.91643 40.7537 8.11413 40.6466 8.14645 40.5013C8.405 39.3394 9.42582 38.6584 9.60307 37.5012C9.66493 37.1631 9.56974 36.9298 9.5503 36.5965C9.45511 36.3631 9.31927 36.1322 9.14278 35.9036C8.83777 34.8703 9.03446 34.0465 9.65433 33.4846C10.0081 32.556 10.5577 32.1892 10.285 31.0107C9.9606 29.6441 8.75673 29.2847 8.16161 28.1728C5.76272 24.1088 12.6097 24.7105 13.5306 22.3152C13.8815 21.3389 13.4796 20.7414 14.1936 19.6961C14.7912 18.7532 15.8315 18.4054 16.7988 18.2053C17.3651 18.1243 18.0534 18.0362 18.7066 18.0456C17.3762 18.3148 16.0709 19.0125 15.2265 19.9222C14.5365 20.6794 14.0201 21.6175 13.672 22.6413C13.5177 22.7937 13.3255 22.9961 13.174 23.1962C12.2272 24.4462 11.5465 26.063 11.6465 27.7772C11.7742 29.9677 13.1723 31.558 13.7389 33.5794C13.7934 33.8151 13.8452 34.0032 13.859 34.2413C13.63 35.2103 13.146 36.0032 12.5345 36.708C10.89 37.1868 9.30387 38.6655 8.34693 40.4418C6.87163 41.7229 5.69477 43.2254 5.54631 45.5754C5.38951 47.7825 6.2462 49.8824 7.79295 51.2251C8.78069 52.075 10.1176 52.6177 10.8402 53.8177C10.8837 53.8629 10.8892 53.9581 10.9327 54.0034C9.62198 56.7082 6.20756 59.011 5.74045 62.1919C5.50968 63.8301 5.98107 65.6181 6.99103 66.8489C8.1747 68.2607 10.0502 68.2462 9.20334 71.2106C9.03341 71.7939 8.79784 71.9511 8.83672 72.6177C8.85061 72.8558 9.14072 72.9344 9.20813 72.6915C9.88329 70.9796 11.8307 70.1008 10.4807 67.9343C9.71741 66.7367 8.27797 66.5345 7.58766 65.1894C6.94634 63.9847 7.12081 62.7799 7.62882 61.6989C8.03937 64.5417 10.5148 67.12 12.866 66.1697C13.8731 67.353 14.5551 68.5553 13.6037 70.4268C13.0929 71.4602 11.9078 72.8198 12.4355 74.1745C12.9659 75.5768 14.4054 75.779 15.5593 75.2813C16.2763 76.386 17.3075 77.2811 18.395 77.7429C18.7295 78.5833 19.1805 79.3214 19.8993 79.757C20.7891 80.326 22.3911 80.5187 22.7577 79.1115C22.8602 78.771 22.5562 78.4544 22.2717 78.4711C21.4587 78.5188 20.909 78.8855 20.1735 78.1642L20.0432 78.0285C21.0188 77.9712 21.8854 77.4425 22.5477 76.2092C23.137 75.1234 23.3465 73.821 23.193 72.5877C23.5516 73.14 23.9452 73.5947 24.409 73.8542C25.1279 74.2899 26.1201 74.5183 26.8647 73.9968C27.4523 73.5801 27.8818 72.5515 27.4308 71.8134C27.2515 71.5373 26.8423 71.5135 26.6991 71.8564C26.591 72.1016 26.483 72.3469 26.3287 72.4993C25.754 72.4374 25.5866 70.966 25.6753 70.3874C25.7639 69.8089 26.5085 69.2874 26.8549 68.9326C27.3177 68.4754 27.7944 68.2563 28.1242 67.6158C28.7541 66.5276 28.7115 65.0967 28.2355 63.9301C27.754 62.6682 26.8476 61.8136 25.8709 61.1541C24.7668 60.4066 23.7634 59.9877 23.268 58.4878C22.7699 56.9402 23.3397 55.5211 23.4976 54.0306L23.4892 53.8878C23.868 53.3877 24.122 52.8472 24.205 52.1734C24.5307 48.6663 19.8844 48.031 20.4273 44.75C20.4864 44.3643 20.6295 44.0215 20.7755 43.7262C20.8863 43.5286 20.9999 43.3786 21.1514 43.1785C21.5329 42.7261 22.0392 42.3142 22.4641 41.907C23.1653 41.3403 23.9967 40.9092 24.7792 40.3377C26.0735 39.4495 26.9501 38.3946 26.9231 36.5327C26.8794 34.3851 25.6819 32.7353 24.7661 31.0211C22.7497 27.2213 24.6452 24.0521 27.4342 22.2161C27.6753 22.1542 27.9136 22.0446 28.1492 21.8875C28.2333 21.9303 28.3525 21.8755 28.431 21.8232C28.5067 21.7231 28.5853 21.6708 28.661 21.5708L28.7423 21.566C31.7123 19.3371 34.5188 16.4011 38.3521 17.0841C40.5371 17.4814 42.9108 19.0145 42.5951 21.9955C42.4078 23.6788 41.8897 25.286 42.071 26.9955C42.354 29.7502 44.3913 31.1119 46.5625 31.2712C47.6684 31.3497 48.7549 31.0948 49.8441 30.8875C52.6556 31.5349 55.2926 33.387 54.9919 37.3227C54.7308 40.5394 52.2079 42.742 51.6161 45.8825C51.4333 46.9444 51.4565 48.042 51.7615 49.0753C51.792 49.5991 51.9039 50.1182 52.0971 50.6324C52.5702 51.7514 53.387 52.468 54.1281 53.2846C56.1369 55.5558 54.2366 57.2441 52.8242 58.9037C52.0612 59.8086 51.3989 61.042 51.2679 62.292C51.1164 62.492 50.927 62.742 50.8189 62.9873C50.0569 64.6088 50.2809 67.7492 52.2894 67.918C52.5768 67.949 52.6682 67.418 52.4159 67.2894C51.4938 66.8657 51.381 65.63 51.6451 64.5634C51.7809 64.7943 51.9168 65.0252 52.0933 65.2538C52.4869 65.7085 52.9101 65.9704 53.3767 66.2774C54.3995 67.0297 54.504 68.1226 54.3758 69.4202C54.3434 69.5654 54.3518 69.7083 54.3194 69.8535C54.3222 69.9011 54.3222 69.9011 54.2843 69.9511C54.1043 71.0607 53.8347 72.0321 54.2293 73.2035C54.4225 73.7178 54.6914 74.132 55.036 74.4463C54.2609 74.444 53.3655 73.7798 52.9441 72.8489C52.7621 72.5251 52.3695 72.787 52.4296 73.118C53.0673 75.6608 55.4723 76.3319 56.8524 74.8175L56.9337 74.8127C57.8687 74.7579 58.6438 74.7602 59.4356 75.0482C60.586 75.8886 61.8388 76.3884 63.2477 76.0668C64.47 76.0429 65.7514 75.6333 66.7806 75.0951C68.8121 74.2591 70.6161 71.6209 70.396 69.2447C72.0702 70.6755 74.8585 70.2252 74.7916 66.98C74.8017 66.4538 74.1836 66.3467 74.0053 66.7872C73.4844 68.3468 72.5411 68.2588 71.1292 66.4304C71.2613 65.897 71.3961 65.4113 71.5716 64.9232C71.7064 64.4375 71.8819 63.9494 71.9326 63.4208C72.0258 62.2208 71.7236 61.2351 70.9419 60.4209C70.6813 60.1495 70.3829 59.9281 70.0844 59.7067C70.0382 59.6139 69.9514 59.5234 69.9051 59.4305C69.5762 58.6853 69.2065 57.9425 68.8775 57.1973C69.1315 56.6568 69.3393 56.0235 69.4658 55.3949C70.0034 54.121 70.248 52.721 70.3329 51.3782C70.3457 50.8996 70.3531 50.3258 70.2819 49.8044C70.3715 49.9424 70.4584 50.0329 70.548 50.171C71.1921 51.4233 70.552 53.0377 70.3831 54.3377C70.0296 57.3686 71.7382 60.0875 74.2742 59.5087ZM11.2402 52.9819C10.3171 51.8415 8.93673 51.2536 7.84825 50.0751C6.24141 48.4015 5.95559 45.5992 7.05847 43.5276C6.78048 44.3562 6.74917 45.2181 7.00797 46.1586C7.66419 48.318 9.4354 49.3131 10.7466 50.8129C10.9231 51.0415 11.0968 51.2224 11.2298 51.4057C11.3851 51.97 11.375 52.4962 11.2402 52.9819ZM23.7279 25.1093C22.5843 27.1833 22.5846 29.2856 23.5688 31.4736C24.224 32.9164 25.2339 34.1472 25.6536 35.7472C26.1222 37.4876 25.4109 38.5805 24.4391 39.402C24.5444 39.1092 24.6469 38.7687 24.7088 38.4306C25.0532 36.6425 24.7878 34.8901 23.8508 33.5117C23.848 33.464 23.8074 33.4664 23.8046 33.4188C22.6846 30.9999 22.0367 28.9833 22.8595 26.307C22.9297 26.1118 22.8752 25.8761 22.7449 25.7404C23.1966 25.0927 23.6918 24.4903 24.3578 24.0212C24.4363 23.9688 24.4742 23.9188 24.5527 23.8664C24.2091 24.2688 23.9468 24.6665 23.7279 25.1093ZM43.8154 28.231C43.1981 26.7383 43.5296 25.4287 43.8907 23.9263C44.3164 22.1334 44.7938 20.5286 43.878 18.8144C41.5928 14.6004 37.4353 14.6532 33.8277 16.4417C34.0984 16.1869 34.3284 15.9345 34.5991 15.6797C35.983 14.9296 37.4648 14.4604 39.0151 14.465C40.5247 14.4719 42.0566 14.8599 43.3751 15.7859C44.2687 17.1192 45.0781 18.4095 45.2215 20.169C45.3733 22.0714 44.6603 23.8334 44.6466 25.6976C44.6062 27.8024 45.4 29.5237 46.8784 30.3926C45.5286 30.3285 44.3921 29.7262 43.8154 28.231Z" fill="#4C352C"/>
<path d="M58.8106 56.9198C58.3808 56.5404 57.9192 56.3146 57.4576 56.0887C56.996 55.8629 56.4996 55.7403 56.0439 55.6153C55.5881 55.4903 55.1324 55.3653 54.7144 55.1875C53.8783 54.832 53.1176 54.3708 52.6991 53.4848C52.2835 52.6493 52.2189 51.5402 52.4039 50.5176C52.586 49.4446 52.98 48.5109 53.4524 47.5221C54.403 45.6452 55.6062 43.9052 56.5044 41.829C56.7188 41.3106 56.9303 40.7417 57.0634 40.228C57.1937 39.6639 57.3239 39.0999 57.3699 38.4901C57.5055 37.3187 57.432 36.0584 57.0801 34.9156C56.8823 34.3202 56.6498 33.828 56.336 33.3405L56.0717 33.002L55.8103 32.7138C55.636 32.5217 55.4211 32.332 55.2092 32.1927C54.3207 31.6378 53.3716 31.4406 52.3965 31.4979C50.484 31.5596 48.7463 32.5216 46.915 32.5786C46.0183 32.5807 45.0691 32.3835 44.3402 31.7687C43.9947 31.4349 43.6868 31.0483 43.4949 30.5537C43.3436 30.0567 43.2707 29.5046 43.3226 28.9957C43.3828 27.9298 43.8145 26.9434 44.2869 25.9545C44.7186 24.968 45.2722 23.9744 45.4455 22.7501C45.5321 22.138 45.5375 21.5307 45.4993 20.8753C45.4235 20.2727 45.2663 19.6749 45.0686 19.0795C44.676 17.9391 44.0078 16.9667 43.2295 16.203C42.4512 15.4393 41.4844 14.9397 40.5323 14.6921C39.5802 14.4445 38.5645 14.5041 37.6389 14.7102C35.7469 15.1249 34.021 16.2885 32.597 17.738C31.173 19.1874 29.9698 20.9274 28.8102 22.7154L28.8538 22.7634C30.1441 21.1195 31.3938 19.4779 32.8643 18.127C33.601 17.4767 34.3406 16.8768 35.1674 16.373C35.9971 15.9195 36.8356 15.6174 37.7206 15.4136C39.453 15.059 41.3513 15.4533 42.7366 16.839C43.0822 17.1728 43.3901 17.5594 43.6603 17.9988C43.9305 18.4382 44.16 18.88 44.3519 19.3745C44.7357 20.3637 44.8816 21.468 44.7372 22.4882C44.5928 23.5084 44.1611 24.4949 43.7323 25.5318C43.3005 26.5183 42.8776 27.656 42.8262 28.8731C42.7802 29.4828 42.8996 30.1334 43.0944 30.6784C43.3299 31.221 43.6843 31.706 44.1112 32.0351C44.9649 32.6931 45.9517 32.8375 46.8891 32.833C48.7986 32.7209 50.5393 31.8093 52.3735 31.8028C53.2702 31.8007 54.2165 31.9475 54.983 32.5095C55.1544 32.6512 55.3663 32.7905 55.5406 32.9826L55.802 33.2707L56.0227 33.5613C56.2929 34.0007 56.5255 34.4929 56.6361 34.9922C56.9009 36.039 56.9249 37.1505 56.7864 38.2715C56.6449 39.3421 56.338 40.3718 55.8656 41.3607C54.9992 43.2832 53.7525 44.9752 52.7265 46.9577C52.2135 47.9489 51.7847 48.9858 51.5301 50.2148C51.4029 50.8293 51.3569 51.4391 51.395 52.0944C51.4332 52.7498 51.5933 53.398 51.8723 53.9887C52.1513 54.5793 52.5464 55.0619 53.0138 55.3886C53.4407 55.7176 53.9459 55.9915 54.4045 56.1669C55.3219 56.5177 56.271 56.7149 57.1071 57.0704C57.9432 57.426 58.7504 57.9857 59.1659 58.8212C59.352 59.215 59.4626 59.7143 59.4484 60.1704C59.4342 60.6265 59.2575 61.0922 59.0372 61.5098C58.556 62.3474 57.8164 62.9473 57.0391 63.6C56.6504 63.9263 56.2617 64.2527 55.9196 64.6774C55.5774 65.1022 55.2411 65.6278 55.0703 66.1943C54.8588 66.7631 54.7751 67.4257 54.8539 68.0787C54.9151 68.4292 55.014 68.7269 55.1535 69.0222C55.3337 69.3151 55.5109 69.5576 55.7258 69.7474C56.5853 70.5063 57.5722 70.6506 58.2981 71.215C58.6814 71.496 58.9487 71.885 59.0593 72.3844C59.1699 72.8837 59.121 73.4431 58.9878 73.9567C58.6809 74.9865 57.9095 75.74 57.1728 76.3903L57.2193 76.4887C57.9589 75.8888 58.7739 75.1833 59.1998 74.096C59.4112 73.5272 59.4979 72.9151 59.3814 72.3149C59.2619 71.6643 58.9046 71.1288 58.5184 70.7974C57.7024 70.0865 56.7126 69.8918 56.062 69.2218C55.7165 68.888 55.5304 68.4942 55.4604 67.9925C55.3934 67.5411 55.483 66.9794 55.6597 66.5138C56.0131 65.5825 56.7092 64.9346 57.4894 64.3323C57.8781 64.006 58.2697 63.73 58.6554 63.3533C59.0411 62.9765 59.4239 62.5494 59.7225 62.0766C60.0182 61.5534 60.2703 60.9821 60.3104 60.2716C60.3535 59.6114 60.2282 58.86 59.9491 58.2693C59.6324 57.7315 59.2374 57.2489 58.8106 56.9198ZM23.8643 25.9904C24.2877 25.5609 24.7953 25.1769 25.3059 24.8435C26.327 24.1765 27.4876 23.8048 28.6017 23.3347L28.5958 23.2338C27.4293 23.5047 26.2629 23.7755 25.114 24.3489C24.0058 24.9198 22.9151 25.7932 22.2602 27.1469C21.9298 27.7733 21.6894 28.5462 21.571 29.312C21.4932 30.0753 21.5431 30.9324 21.7932 31.727C22.0404 32.4713 22.4472 33.1556 22.8481 33.7391C23.249 34.3226 23.7253 34.8005 24.1639 35.3311C24.5996 35.8114 25.0382 36.3421 25.3955 36.8775C25.7528 37.413 26.0348 38.054 26.1136 38.707C26.2331 39.3576 26.1117 40.073 25.8625 40.6946C25.6134 41.3163 25.1958 41.8466 24.7753 42.3266C23.8908 43.2385 22.7855 43.8599 21.8633 44.8246C21.4022 45.3069 20.9846 45.8373 20.6978 46.5118C20.4109 47.1862 20.2112 47.9567 20.3395 48.7586C20.4271 49.5628 20.8398 50.3479 21.316 50.8258C21.7953 51.3541 22.3876 51.724 22.8957 52.0483C23.4474 52.4205 23.9555 52.7448 24.3882 53.1747C24.5159 53.2683 24.5654 53.4172 24.6931 53.5108C24.7803 53.6069 24.8703 53.7534 24.9198 53.9022C25.0157 54.1495 25.1146 54.4472 25.1322 54.7497C25.1675 55.3546 24.956 55.9235 24.6168 56.3987C24.2776 56.8739 23.8135 57.3058 23.3436 57.6369C23.1086 57.8025 22.8737 57.968 22.5981 58.136C22.3225 58.3039 22.0498 58.5223 21.8178 58.7383C21.3131 59.1726 20.8143 59.7077 20.4492 60.4374C20.2666 60.8022 20.1276 61.215 20.0728 61.6735C20.0179 62.132 20.085 62.5834 20.1927 63.0323C20.4487 63.9278 21.0092 64.4513 21.4855 64.9292C21.9618 65.4071 22.3945 65.8369 22.6706 66.3772C22.9467 66.9174 23.0255 67.5704 22.9824 68.2305C22.8992 69.6012 22.2849 70.9525 22.2976 72.5705C22.3211 72.9738 22.3852 73.3747 22.487 73.7229C22.6324 74.119 22.8532 74.4095 23.1116 74.6473C23.3701 74.885 23.6663 75.07 23.9942 75.1013C24.3251 75.1831 24.6443 75.0631 24.8734 74.7968L24.8269 74.6983C24.3193 75.0822 23.6922 74.8155 23.2972 74.3329C23.0793 74.0928 22.9398 73.7974 22.8409 73.4997C22.7421 73.202 22.7215 72.8491 22.7416 72.4939C22.7812 71.0751 23.442 69.8223 23.6383 68.2932C23.7568 67.5274 23.7039 66.62 23.3319 65.8325C22.9628 65.0954 22.4429 64.5695 22.0073 64.0892C21.5716 63.6089 21.1766 63.1263 21.0224 62.5789C20.8682 62.0315 20.9578 61.4698 21.2128 60.949C21.4678 60.4281 21.8883 59.9482 22.3553 59.5666C22.5873 59.3507 22.8223 59.1851 23.0572 59.0196C23.2922 58.854 23.5649 58.6357 23.8404 58.4677C24.3481 58.0838 24.8498 57.5991 25.3021 56.9655C25.5282 56.6487 25.7138 56.3343 25.8528 55.9214C25.9918 55.5086 26.0466 55.0501 26.0202 54.5964C25.9938 54.1427 25.8484 53.7465 25.6624 53.3527C25.5694 53.1559 25.4387 53.0118 25.3456 52.8149L24.9536 52.3827C24.4366 51.9072 23.8473 51.5877 23.2985 51.2658C22.7498 50.9439 22.2417 50.6197 21.7713 50.2426C21.3386 49.8128 20.9812 49.2773 20.9024 48.6243C20.783 47.9737 20.9044 47.2584 21.1535 46.6367C21.4027 46.0151 21.7766 45.4367 22.2001 45.0071C23.0817 44.0448 24.1493 43.4763 25.1121 42.5092C25.5732 42.0268 25.9908 41.4965 26.3182 40.8196C26.6487 40.1932 26.8048 39.3746 26.7578 38.568C26.7108 37.7614 26.3823 37.0219 26.0191 36.3856C25.6559 35.7494 25.2173 35.2187 24.7758 34.6376C23.8986 33.5762 23.0273 32.6157 22.5852 31.3264C22.1462 30.0876 22.3483 28.6593 22.8902 27.464C23.1075 26.996 23.4438 26.4704 23.8643 25.9904ZM20.8144 72.3035C20.5701 71.6097 20.5261 70.8535 20.6039 70.0901C20.6411 69.3292 20.716 68.5154 20.6284 67.7112C20.5642 67.3102 20.4565 66.8613 20.2705 66.4675C20.0845 66.0738 19.7796 65.7376 19.4834 65.5526C18.8852 65.0819 18.3017 64.8633 17.869 64.4334C17.4392 64.054 17.2821 63.4562 17.3658 62.7936C17.4524 62.1815 17.7016 61.5599 18.0815 61.0823C18.4613 60.6047 18.966 60.1704 19.4707 59.7361C19.7433 59.5177 19.9724 59.2513 20.2421 58.9826C20.5118 58.7138 20.738 58.397 20.9206 58.0322C21.3293 57.3506 21.645 56.4721 21.505 55.4686C21.435 54.9668 21.2896 54.5707 21.063 54.1793C20.8363 53.7879 20.5343 53.5022 20.2352 53.2668C19.6371 52.7961 19.0506 52.527 18.4613 52.2075C17.9125 51.8856 17.3638 51.5638 16.9688 51.0811C16.5737 50.5985 16.373 49.9526 16.3319 49.2468C16.2908 48.5411 16.4122 47.8257 16.6584 47.1537C16.9046 46.4816 17.238 45.9056 17.6555 45.3752C18.4877 44.264 19.4941 43.345 20.3204 42.133C20.732 41.5018 21.0624 40.8753 21.2622 40.1048C21.5054 39.3823 21.5774 38.5182 21.4085 37.7187C21.2803 36.9169 20.8705 36.1822 20.4319 35.6515C19.9963 35.1712 19.52 34.6933 19.0031 34.2178C18.4862 33.7423 18.0099 33.2645 17.6496 32.6786C17.2893 32.0927 17.0074 31.4517 16.8473 30.8035C16.5619 29.4038 16.8018 27.9227 17.3378 26.6266C17.8738 25.3305 18.7088 24.2698 19.727 23.5524C20.7858 22.8326 21.9435 22.4105 23.1565 22.2381C24.3665 22.0152 25.6289 21.9917 26.8537 22.0209L26.8478 21.9201C25.6143 21.7396 24.343 21.6119 23.0865 21.7363C21.827 21.8103 20.5445 22.1891 19.4044 22.9137C18.8126 23.252 18.2702 23.7391 17.8121 24.2718C17.3568 24.855 16.9452 25.4862 16.6613 26.2111C16.0528 27.6632 15.7841 29.3483 16.1654 30.9953C16.3343 31.7947 16.7469 32.5798 17.1885 33.1609C17.6706 33.7396 18.1876 34.2151 18.7045 34.6906C19.2185 35.1157 19.7324 35.5408 20.2117 36.0691C20.6503 36.5998 21.0105 37.1856 21.1765 37.9347C21.2989 38.6357 21.2646 39.4471 21.059 40.1168C20.8534 40.7864 20.5259 41.4633 20.1113 42.0441C19.3228 43.2033 18.2698 44.0239 17.3535 45.0894C16.4371 46.1549 15.6662 47.6166 15.6877 49.3858C15.697 50.2453 15.9531 51.1408 16.4788 51.7675C16.9639 52.3966 17.5997 52.8145 18.1891 53.134C18.7785 53.4535 19.3678 53.773 19.8383 54.1501C20.0531 54.3398 20.271 54.5799 20.4075 54.8248C20.5441 55.0697 20.643 55.3674 20.6606 55.6699C20.7365 56.2725 20.528 56.8918 20.1946 57.4678C19.9019 58.0414 19.4379 58.4733 18.9332 58.9077C18.4285 59.342 17.9268 59.8267 17.4309 60.4123C16.9786 61.0459 16.6164 61.8259 16.5474 62.7405C16.4925 63.199 16.5596 63.6503 16.7109 64.1473C16.8621 64.6443 17.1264 64.9829 17.4255 65.2182C18.0266 65.7394 18.6478 65.9052 19.1589 66.2799C19.667 66.6042 19.946 67.1948 20.0684 67.8958C20.1908 68.5968 20.1536 69.3578 20.1599 70.1668C20.1257 70.9782 20.2539 71.78 20.5417 72.5219C20.6842 72.8676 20.9079 73.2086 21.1693 73.4967C21.4278 73.7345 21.8022 73.8642 22.0837 73.7971L22.0778 73.6963C21.5031 73.6289 21.018 72.9998 20.8144 72.3035ZM65.3474 58.5593C65.5995 57.9881 65.7674 57.3712 65.8917 56.7063C65.9754 56.0438 65.9779 55.386 65.8555 54.685C65.7331 53.984 65.4105 53.3453 64.9342 52.8674C64.4579 52.3896 63.9151 52.1685 63.3781 52.0483C62.8411 51.9281 62.31 51.9087 61.8166 51.8365C61.3261 51.8147 60.8327 51.7425 60.4176 51.6151C60.0025 51.4878 59.6192 51.2068 59.3925 50.8154C58.8986 50.035 58.9471 48.7675 59.3005 47.8362C59.6916 46.8521 60.3324 45.9546 60.9702 45.0066C61.608 44.0586 62.2023 43.0625 62.7529 42.0185C63.8543 39.9304 64.7349 37.5517 64.8695 34.964C65.0041 32.3762 64.358 29.6825 62.8591 27.7471C62.5047 27.2621 62.072 26.8322 61.6045 26.5056C61.137 26.179 60.6319 25.9051 60.0949 25.7849C59.0586 25.4916 58.0052 25.6041 57.0042 25.9158C54.9991 26.4888 53.3285 27.9022 51.5036 28.7681C50.5897 29.1759 49.6352 29.5861 48.6483 29.4417C48.1549 29.3695 47.7281 29.0404 47.4172 28.6034C47.1064 28.1664 46.9493 27.5686 46.8328 26.9684C46.681 25.7633 46.9791 24.5823 47.2772 23.4013C47.5753 22.2204 47.7457 20.9457 47.7535 19.6806C47.7691 17.1504 47.1695 14.5552 45.865 12.4566C44.5227 10.4109 42.4903 9.11385 40.4324 8.77943C38.3716 8.39461 36.2736 8.77075 34.4199 9.84074C32.5661 10.9107 30.9914 12.5714 29.7593 14.5154C28.4866 16.4618 27.513 18.6436 26.7891 20.9118L26.8732 20.9575C27.7656 18.7805 28.7857 16.6972 30.1049 14.8492C31.3835 13.0036 32.97 11.5446 34.7048 10.5322C36.4831 9.56781 38.4622 9.24924 40.3605 9.64361C41.3096 9.8408 42.2676 10.1892 43.1154 10.7465C43.9632 11.3037 44.7415 12.0674 45.3662 12.9918C46.6154 14.8407 47.2845 17.2295 47.3443 19.6541C47.3741 20.8664 47.2415 22.0882 46.984 23.2668C46.7265 24.4454 46.4314 25.6768 46.6296 26.9804C46.7084 27.6334 46.9062 28.2288 47.2635 28.7642C47.6209 29.2997 48.129 29.6239 48.6224 29.6961C49.6934 29.8861 50.6886 29.4736 51.6025 29.0658C53.468 28.1975 55.1881 26.933 57.1177 26.4656C58.0811 26.2067 59.0591 26.1998 59.9705 26.4498C60.4263 26.5748 60.8502 26.8534 61.2741 27.132C61.6603 27.4634 62.0495 27.8453 62.3603 28.2823C63.6472 30.0784 64.2004 32.5752 64.0481 34.8605C63.9018 37.2466 63.0501 39.4212 61.9428 41.4085C61.3892 42.4021 60.792 43.3477 60.1948 44.2933C59.5976 45.2389 58.8756 46.1413 58.3773 47.3846C58.1688 48.0039 58.0068 48.7216 58.0479 49.4274C58.0484 50.1355 58.2143 50.8846 58.6152 51.4681C59.0161 52.0515 59.5707 52.4742 60.1107 52.6449C60.6506 52.8155 61.1817 52.8349 61.6722 52.8567C62.6531 52.9002 63.6718 52.891 64.3253 53.6114C64.6709 53.9452 64.9005 54.387 65.014 54.9368C65.1276 55.4865 65.1193 56.0435 65.0703 56.6028C64.9807 57.1645 64.8505 57.7286 64.6361 58.247C64.4217 58.7655 64.1231 59.2383 63.8652 59.7087C63.268 60.6543 62.543 61.5062 61.9517 62.5527C61.6561 63.0759 61.401 63.5967 61.2331 64.2136C61.0652 64.8305 60.9786 65.4426 61.0168 66.098C61.055 66.7534 61.1744 67.404 61.4099 67.9466C61.6859 68.4868 62.081 68.9694 62.5832 69.1929L62.618 69.0897C62.1534 68.8134 61.802 68.3788 61.6071 67.8338C61.4123 67.2888 61.2958 66.6886 61.3012 66.0813C61.3066 65.4739 61.3932 64.8618 61.567 64.3458C61.7408 63.8297 61.9958 63.3089 62.2944 62.8361C62.8916 61.8905 63.6195 61.0889 64.2979 60.1385C64.7996 59.6538 65.0953 59.1306 65.3474 58.5593ZM23.528 18.1188C23.2426 16.7192 23.0791 15.3124 23.2059 13.9897C23.2289 13.6849 23.2896 13.3272 23.3938 13.0176C23.4575 12.7103 23.5617 12.4007 23.666 12.091C23.9181 11.5198 24.2544 10.9942 24.6372 10.567C25.0199 10.1399 25.4899 9.80875 26.0092 9.62649C26.2907 9.55937 26.5345 9.54506 26.8189 9.52835C27.1062 9.56207 27.3559 9.64857 27.6461 9.7327C28.1861 9.90333 28.7725 10.1724 29.3819 10.1366C29.7069 10.1175 29.9825 9.94958 30.2552 9.73123C30.3335 9.67604 30.3712 9.62324 30.4495 9.56806L30.6003 9.35686C30.7163 9.24888 30.7858 9.04245 30.8989 8.88406C31.2293 8.25763 31.4319 7.53753 31.5969 6.87023C31.8025 6.20054 31.9704 5.58366 32.269 5.11085C32.4197 4.89965 32.5734 4.73887 32.7707 4.62611C32.968 4.51336 33.1711 4.50143 33.4208 4.58794C33.8765 4.71293 34.344 5.03957 34.855 5.41424C35.1105 5.60158 35.3661 5.78892 35.6999 5.92107C35.9931 6.0556 36.327 6.18775 36.6926 6.16628C37.0612 6.19522 37.3804 6.0753 37.6966 5.90497C37.9722 5.73703 38.2478 5.56909 38.4798 5.35312L39.1788 4.75563C39.4138 4.59008 39.6487 4.42452 39.8866 4.30938C40.3654 4.1295 40.9718 4.0433 41.4104 4.57398L41.4888 4.5188C41.3086 4.22586 41.0502 3.98812 40.7163 3.85597C40.4261 3.77184 40.0981 3.74052 39.776 3.81002C39.4539 3.87952 39.1754 3.99705 38.8998 4.16499C38.6242 4.33293 38.3892 4.49849 38.1543 4.66404C37.6843 4.99515 37.1679 5.22783 36.7181 5.20366C36.2682 5.17949 35.8007 4.85285 35.3303 4.47579C34.8222 4.15153 34.3053 3.67604 33.6029 3.51495C32.9004 3.35386 32.1114 3.80488 31.7026 4.4865C30.9664 5.84496 30.9733 7.36212 30.5127 8.55264C30.3012 9.1215 29.8836 9.65188 29.3584 9.73331C28.8332 9.81474 28.2497 9.59608 27.7068 9.37503C27.164 9.15399 26.5398 8.93771 25.9334 9.02392C25.3269 9.11012 24.7321 9.39798 24.2274 9.8323C23.7228 10.2666 23.3111 10.8978 23.0649 11.5699C22.781 12.2948 22.6596 13.0101 22.6224 13.7711C22.5886 15.2906 22.9176 16.7383 23.4815 18.0204L23.528 18.1188ZM6.3186 39.7178C5.72336 39.2975 5.31364 38.5628 5.1477 37.8137C4.98175 37.0647 5.21916 36.2414 5.59314 35.663C5.7816 35.399 6.01068 35.1326 6.28921 35.0151C6.5648 34.8471 6.88689 34.7776 7.20898 34.7081C7.85317 34.5691 8.81064 34.2094 9.14937 33.026C9.213 32.7188 9.23601 32.4139 9.17776 32.1138C9.1195 31.8137 8.97999 31.5184 8.84636 31.3239C8.57909 30.9349 8.23643 30.6515 8.0186 30.4114C7.80077 30.1713 7.62064 29.8783 7.47819 29.5326C7.33574 29.1869 7.27455 28.8364 7.21043 28.4355C7.12574 27.6816 7.28482 26.9135 7.57167 26.2391C7.71656 25.927 7.94271 25.6102 8.17473 25.3943C8.40676 25.1783 8.72298 25.008 9.03919 24.8376C9.67457 24.5474 10.3564 24.3556 10.9948 24.1158C11.6737 23.8736 12.3409 23.4297 12.7408 22.5968C13.103 21.8168 13.1285 20.8542 13.3718 20.1317C13.615 19.4092 14.0703 18.826 14.6156 18.3893C15.1609 17.9526 15.7527 17.6143 16.3533 17.4273C16.9539 17.2403 17.6446 17.1997 18.3006 17.2624C19.6531 17.3853 20.9855 17.8635 22.3556 18.2888L22.3904 18.1856C21.1245 17.4506 19.818 16.718 18.3784 16.499C16.9765 16.2272 15.366 16.5747 14.2088 17.705C13.6317 18.2953 13.1853 19.0297 12.9508 19.9035C12.7163 20.7772 12.8098 21.6822 12.4853 22.4095C12.2014 23.1344 11.5719 23.5254 10.89 23.7172C10.2517 23.9571 9.561 23.9976 8.84143 24.2422C8.48165 24.3645 8.16543 24.5349 7.81152 24.758C7.45761 24.9811 7.19377 25.3507 6.97056 25.7179C6.52707 26.5027 6.33911 27.4749 6.39491 28.4328C6.42429 28.9369 6.49135 29.3882 6.6803 29.8324C6.82862 30.279 7.09883 30.7184 7.36316 31.0569C7.62749 31.3955 7.92658 31.6309 8.10378 31.8734C8.28099 32.1159 8.29273 32.3176 8.26679 32.572C8.20022 32.8288 8.01176 33.0928 7.7768 33.2584C7.54184 33.424 7.26331 33.5415 6.94416 33.6614C6.625 33.7813 6.30878 33.9516 5.95487 34.1748C5.60096 34.3979 5.2965 34.7699 5.07328 35.1371C4.6298 35.9219 4.48833 36.9925 4.78498 37.8856C5.04099 38.7811 5.61322 39.5063 6.32154 39.7682L6.3186 39.7178ZM20.8952 84.1864C20.5354 84.3087 20.161 84.1789 19.8212 83.9459C19.1795 83.4272 18.8393 82.486 18.4237 81.6505C18.1941 81.2087 17.9239 80.7693 17.5783 80.4355C17.2327 80.1017 16.7741 79.9263 16.359 79.7989C15.494 79.6474 14.6844 79.7455 13.9472 79.6876C13.5786 79.6587 13.2071 79.5793 12.9486 79.3416C12.6931 79.1542 12.4694 78.8133 12.3646 78.4148C12.1987 77.6657 12.4273 76.6912 12.7489 75.9135C13.1082 75.083 13.5458 74.1974 13.6843 73.0764C13.7739 72.5147 13.7386 71.9097 13.5409 71.3143C13.346 70.7693 13.0323 70.2819 12.6837 69.8976C11.949 69.182 11.1565 68.8745 10.4394 68.4613C9.72517 68.0986 9.00805 67.6854 8.56358 67.0539C8.07848 66.4248 7.90666 65.5749 8.05987 64.706C8.17245 63.8394 8.53174 63.0089 8.9811 62.3249C9.95815 60.9017 11.4115 59.9564 12.458 58.3268C12.9392 57.4892 13.3739 56.5531 13.4341 55.4873C13.483 54.928 13.4101 54.3758 13.2588 53.8788C13.1076 53.3819 12.8344 52.8921 12.5265 52.5055C11.2979 51.0095 9.56209 50.6056 8.50182 49.2008C7.97316 48.5237 7.63295 47.5825 7.61777 46.6223C7.56196 45.6645 7.74993 44.6923 8.10922 43.8618C8.46851 43.0314 8.99619 42.2922 9.57038 41.6514C10.1446 41.0107 10.8059 40.466 11.4701 39.9717C12.1314 39.427 12.7928 38.8823 13.3581 38.0903C13.622 37.7207 13.8799 37.2503 14.0102 36.6862C14.1433 36.1726 14.1893 35.5628 14.1164 35.0107C13.9299 33.9087 13.3894 33.0299 12.9739 32.1944C12.5176 31.3612 12.2675 30.5666 12.174 29.6615C12.0276 27.849 12.6532 25.9912 13.6302 24.568C14.6073 23.1448 16.0229 22.2523 17.4968 21.6599C18.9707 21.0675 20.5841 20.7704 22.1163 20.4781L22.1104 20.3773C20.5288 20.5207 18.9066 20.6666 17.3456 21.1629C16.5447 21.4123 15.7904 21.7601 15.0826 22.2064C14.3748 22.6526 13.6758 23.2501 13.1104 24.0421C12.5421 24.7837 12.1045 25.6693 11.7946 26.6487C11.4848 27.628 11.3433 28.6986 11.405 29.7573C11.4667 30.8159 11.8534 31.8555 12.3532 32.7367C12.8094 33.5699 13.3033 34.3502 13.4345 35.2025C13.6063 36.0523 13.3718 36.9261 12.9254 37.6605C12.479 38.3949 11.8612 38.9876 11.1999 39.5323C9.92086 40.6697 8.60704 41.9103 7.85663 43.7249C7.50028 44.6058 7.31525 45.6284 7.33337 46.639C7.35148 47.6497 7.69757 48.6916 8.27274 49.4672C9.46077 50.9656 11.1647 51.5231 12.1814 52.8798C12.4458 53.2184 12.6318 53.6122 12.7395 54.0611C12.8442 54.4596 12.8736 54.9638 12.8158 55.3718C12.7062 56.2888 12.3469 57.1193 11.8975 57.8033C10.9611 59.2241 9.50486 60.119 8.37118 61.6526C7.80581 62.4445 7.37113 63.3806 7.22967 64.4512C7.14009 65.0129 7.13177 65.5698 7.24534 66.1196C7.35891 66.6694 7.59436 67.212 7.9052 67.649C8.21603 68.086 8.60225 68.4174 8.98554 68.6984C9.36882 68.9794 9.74623 69.1596 10.1266 69.3902C10.8843 69.801 11.5956 70.1133 12.1996 70.6849C12.7601 71.2084 13.0479 71.9503 12.9324 72.7664C12.8169 73.5826 12.4576 74.413 12.1042 75.3443C11.9275 75.81 11.7943 76.3237 11.7018 76.8349C11.6093 77.3462 11.6039 77.9536 11.7611 78.5514C11.9182 79.1492 12.232 79.6366 12.6559 79.9152C13.0798 80.1938 13.5355 80.3188 13.9854 80.343C14.8445 80.3937 15.6076 80.1971 16.3477 80.3054C16.7163 80.3344 17.0531 80.5169 17.3522 80.7523C17.6513 80.9877 17.8779 81.379 18.1452 81.768C18.5985 82.5508 19.0229 83.5375 19.7488 84.1019C19.9201 84.2436 20.1291 84.3325 20.3759 84.3686C20.5819 84.4071 20.8257 84.3928 21.023 84.28C21.4234 84.1554 21.8062 83.7282 21.8145 83.1713L21.7332 83.176C21.606 83.7905 21.2579 84.1145 20.8952 84.1864ZM72.1886 34.6353C72.0026 34.2415 71.7005 33.9558 71.4421 33.718C70.8845 33.2449 70.3358 32.923 69.8683 32.5964C69.3979 32.2193 69.0871 31.7823 68.9299 31.1845C68.7728 30.5867 68.7753 29.929 68.8154 29.2184C68.8957 27.7973 69.301 26.3571 69.207 24.7439C69.113 23.1307 68.5373 21.6469 67.7732 20.4272C66.9685 19.2098 65.9376 18.3092 64.7618 17.7206C63.5889 17.1825 62.3931 16.9492 61.1742 17.0208C59.9524 17.042 58.7859 17.3128 57.6312 17.7853C56.5171 18.2554 55.4059 18.776 54.2742 18.9436C53.7083 19.0274 53.1336 18.96 52.6343 18.787C52.1321 18.5635 51.6617 18.1865 51.3043 17.651C50.552 16.6329 50.1447 15.2404 49.8187 13.8432C49.4927 12.4459 49.2014 10.9455 48.5097 9.5697C47.1264 6.81816 44.0929 5.83284 41.9288 7.17399L41.9753 7.27243C44.2006 6.28178 46.8425 7.54303 47.9615 9.956C48.5225 11.1877 48.7672 12.5897 49.0962 14.0374C49.4251 15.485 49.8789 16.9759 50.7649 18.1886C51.2064 18.7696 51.8046 19.2404 52.4258 19.4062C53.0499 19.6225 53.7029 19.6347 54.3035 19.4477C55.5107 19.1745 56.5724 18.5051 57.6865 18.035C58.8006 17.5649 59.9671 17.294 61.1512 17.3257C62.3324 17.3069 63.4935 17.6434 64.5474 18.2391C65.6013 18.8348 66.5132 19.793 67.2308 20.9143C67.9078 22.038 68.3528 23.3777 68.435 24.7892C68.5143 26.1504 68.1061 27.5402 67.9504 29.0669C67.8726 29.8302 67.8384 30.6416 68.0914 31.4867C68.1962 31.8852 68.3822 32.279 68.6059 32.6199C68.8296 32.9609 69.1316 33.2467 69.3872 33.434C69.9418 33.8567 70.4876 34.1282 70.9173 34.5076C71.3471 34.8871 71.6203 35.3769 71.6961 35.9794C71.772 36.582 71.6477 37.2469 71.3956 37.8182C71.1841 38.387 70.8102 38.9654 70.4332 39.4934C70.0563 40.0214 69.6417 40.6022 69.3549 41.2767C69.068 41.9511 68.8277 42.724 68.8311 43.4826C68.8546 43.8859 68.9187 44.2868 69.0612 44.6326C69.2066 45.0287 69.468 45.3169 69.7235 45.5042C69.982 45.7419 70.3158 45.8741 70.6002 45.8574C70.9282 45.8887 71.2444 45.7184 71.4735 45.452L71.427 45.3536C70.9629 45.7855 70.3011 45.622 69.8684 45.1922C69.6535 45.0025 69.4734 44.7095 69.3745 44.4118C69.2756 44.1141 69.255 43.7612 69.2345 43.4083C69.2775 42.7482 69.4831 42.0785 69.7759 41.5049C70.0686 40.9312 70.4861 40.4009 70.863 39.8729C71.2806 39.3425 71.6546 38.7641 71.982 38.0872C72.2689 37.4128 72.4657 36.5919 72.4128 35.6844C72.4823 35.478 72.3746 35.0291 72.1886 34.6353ZM51.7713 8.8723C52.2623 9.60225 52.6867 10.589 53.3372 11.259C53.6828 11.5928 54.0661 11.8738 54.5189 11.9484C54.9717 12.023 55.4098 11.8455 55.7578 11.5216C56.1059 11.1976 56.4103 10.8256 56.6742 10.456C56.938 10.0864 57.2048 9.76725 57.4774 9.5489C57.7501 9.33054 58.0692 9.21063 58.3189 9.29714C58.5685 9.38365 58.7864 9.62378 59.013 10.0152C59.2773 10.3537 59.4722 10.8987 59.9396 11.2254C60.1545 11.4151 60.4478 11.5496 60.7322 11.5329C61.0166 11.5162 61.2545 11.4011 61.4894 11.2355C61.9187 10.9068 62.1737 10.386 62.2633 9.82427C62.3558 9.31298 62.3641 8.75605 62.3348 8.25192L62.2535 8.25669C62.161 8.76798 62.0655 9.22886 61.8859 9.64409C61.7063 10.0593 61.4801 10.3761 61.2016 10.4936C60.8854 10.664 60.6357 10.5775 60.4208 10.3877C60.203 10.1476 60.017 9.75385 59.7468 9.31445C59.6102 9.06954 59.4766 8.87505 59.2587 8.63492C59.0409 8.39478 58.7883 8.25786 58.5387 8.17135C57.9611 8.05351 57.4476 8.3366 57.0995 8.66055C56.7515 8.9845 56.45 9.4069 56.2297 9.82452C56.0094 10.2421 55.7862 10.6093 55.5194 10.9285C55.2526 11.2477 54.9394 11.4684 54.5737 11.4899C54.2081 11.5114 53.8248 11.2304 53.5604 10.8918C52.9911 10.2171 52.8105 9.21595 52.3484 8.28197C51.3807 6.36597 49.1774 5.63541 47.727 6.63112L47.7735 6.72957C49.3145 6.58848 50.8706 7.40763 51.7713 8.8723ZM70.9023 62.9376C70.5508 62.5029 70.2023 62.1187 69.935 61.7297C69.8014 61.5352 69.6648 61.2903 69.5689 61.043L69.4671 60.6949C69.4206 60.5965 69.4117 60.4452 69.4029 60.294C69.3329 59.7923 69.3383 59.1849 69.4308 58.6736C69.61 57.5502 69.9952 56.4653 70.2556 55.3371C70.3858 54.773 70.4725 54.1609 70.4779 53.5536C70.4832 52.9462 70.3667 52.3461 70.1283 51.753C69.6951 50.615 68.8732 49.8033 68.1762 49.0349C67.4791 48.2665 66.7385 47.45 66.3954 46.4584C66.0522 45.4669 66.0689 44.353 66.3351 43.3257C66.5579 42.2503 66.946 41.2158 67.3313 40.1309C67.7165 39.046 67.974 37.8674 68.0224 36.5999C68.0278 35.9925 67.9896 35.3372 67.7948 34.7922C67.6377 34.1944 67.321 33.6565 66.9347 33.3251L66.8971 33.3779C67.2079 33.8149 67.4404 34.3071 67.5569 34.9073C67.6705 35.4571 67.6622 36.014 67.6132 36.5733C67.5153 37.692 67.1707 38.7745 66.7825 39.809C66.3537 40.8459 65.9279 41.9332 65.6704 43.1118C65.5431 43.7263 65.4565 44.3384 65.454 44.9962C65.4516 45.6539 65.571 46.3045 65.8094 46.8975C66.8442 49.2649 69.001 49.897 69.8963 51.969C70.0882 52.4636 70.2047 53.0638 70.1964 53.6207C70.1881 54.1776 70.0985 54.7393 69.9277 55.3058C69.6672 56.434 69.1978 57.4733 68.9374 58.6014C68.8072 59.1655 68.7235 59.828 68.8023 60.481C68.8405 61.1364 69.0818 61.7798 69.3985 62.3177C70.029 63.3429 70.845 64.0538 71.1852 64.9949C71.3742 65.4391 71.4036 65.9433 71.2616 66.3057C71.1226 66.7185 70.8152 67.0401 70.4642 67.3136C70.0755 67.64 69.6462 67.9687 69.3158 68.5951C68.9825 69.1712 68.867 69.9873 68.9893 70.6883C69.1876 71.9919 69.7368 73.0219 69.9204 74.0735C70.104 75.125 70.0061 76.2436 69.6556 77.2253C68.9982 79.2368 67.0749 80.5132 65.1796 80.1692L65.1448 80.2724C66.0622 80.6232 67.1156 80.5108 68.0265 80.0526C68.9375 79.5944 69.7437 78.7377 70.2073 77.5976C70.6737 76.5079 70.8412 75.1828 70.6865 73.9273C70.6077 73.2743 70.4099 72.6789 70.2151 72.1339C70.0609 71.5865 69.866 71.0415 69.8367 70.5374C69.7667 70.0356 69.8244 69.6276 70.007 69.2627C70.1896 68.8979 70.5783 68.5716 70.9669 68.2452C71.3556 67.9189 71.8196 67.487 72.0194 66.7165C72.2626 65.994 72.0938 65.1945 71.8554 64.6015C71.6082 63.8572 71.2538 63.3722 70.9023 62.9376Z" fill="#3D261D"/>
<path d="M35.6362 34.6473C35.6362 37.8243 32.8744 40.417 29.4454 40.417C27.7343 40.417 25.7239 39.6393 24.1398 38.452C22.5518 37.2617 21.4306 35.6902 21.4306 34.125C21.4306 32.5385 22.1175 31.2756 23.2302 30.4056C24.3461 29.5331 25.8968 29.0518 27.6214 29.0518C29.3415 29.0518 31.3548 29.6614 32.9361 30.6749C34.5214 31.691 35.6362 33.0876 35.6362 34.6473Z" stroke="black" stroke-width="0.3"/>
<path d="M53.8939 34.2848C53.6586 35.9709 52.2343 37.465 50.399 38.4817C48.5674 39.4964 46.369 40.0108 44.6487 39.7696C41.2332 39.2908 39.3763 35.9659 39.8581 32.5136C40.0911 30.8442 41.4764 29.7875 43.289 29.2079C45.0974 28.6296 47.2868 28.5435 49.0293 28.7878C50.7748 29.0325 52.1059 29.5641 52.9414 30.4448C53.771 31.3193 54.1343 32.5622 53.8939 34.2848Z" stroke="black" stroke-width="0.3"/>
<path d="M35.3519 36.1272C36.0597 35.1961 37.528 34.9955 38.6091 34.9955C38.882 34.9955 39.2117 34.9411 39.4777 35.0004C39.5927 35.026 39.8686 35.3045 39.8686 35.2567" stroke="black" stroke-width="0.3" stroke-linecap="round"/>
<path d="M49.9235 35.4241C49.9235 35.8028 47.2326 34.5098 45.0657 34.5098C42.8988 34.5098 41.6092 35.8028 41.6092 35.4241C41.6092 35.4241 43.3658 33.5955 45.5328 33.5955C47.6997 33.5955 50.484 33.8803 49.9235 35.4241Z" fill="black"/>
<path d="M34.5875 35.4198C34.5875 35.7957 32.9066 34.613 30.8332 34.613C28.7597 34.613 26.5427 35.7957 26.5427 35.4198C25.4266 33.7178 28.2236 33.5955 30.2971 33.5955C32.3706 33.5955 35.2978 35.4198 34.5875 35.4198Z" fill="black"/>
</g>
<defs>
<clipPath id="clip0_147_6">
<rect width="78" height="78" fill="white"/>
</clipPath>
</defs>
</svg>
