<svg xmlns="http://www.w3.org/2000/svg" width="25" height="23" fill="none" viewBox="0 0 25 23"><rect width="21.5" height="21" fill="#000" rx="3"/><rect width="21.5" height="21" fill="#000" rx="3"/><rect width="20.5" height="20" x="3.5" y="2.5" stroke="#000" rx="2.5"/><path fill="#989393" d="M14.1164 14.4273C14.2082 14.4914 14.1732 14.5804 14.1732 14.6587C14.1732 15.7126 14.1732 16.7628 14.1732 17.8167C14.1732 17.838 14.1819 17.863 14.1819 17.8843C12.6394 17.8843 11.0926 17.8843 9.55005 17.8843C9.56753 17.2648 9.56753 16.6418 9.55005 16.0223C9.68988 16.0259 9.62433 16.1149 9.62433 16.1612C9.6287 16.6596 9.63307 17.158 9.62433 17.6529C9.61996 17.7953 9.67677 17.8345 9.84719 17.8345C11.1931 17.8309 12.5389 17.8274 13.8848 17.8345C14.0771 17.8345 14.1077 17.7811 14.1077 17.6422C14.0989 16.7415 14.1033 15.8407 14.1033 14.94C14.1077 14.7691 14.1164 14.5982 14.1164 14.4273Z"/><path fill="#fff" d="M14.1163 14.4273C14.1119 14.5981 14.1076 14.769 14.1076 14.9399C14.1076 15.8407 14.1032 16.7414 14.1119 17.6422C14.1119 17.781 14.0814 17.838 13.8891 17.8344C12.5432 17.8273 11.1973 17.8273 9.85147 17.8344C9.68105 17.8344 9.62425 17.7953 9.62862 17.6529C9.63736 17.1544 9.63299 16.656 9.62862 16.1611C9.62862 16.1148 9.69853 16.0258 9.55433 16.0223C9.52374 16.0223 9.49753 16.0258 9.46694 16.0258C9.41013 16.0044 9.35769 16.008 9.32274 16.0579C8.78089 16.1041 8.23468 16.1397 7.6972 16.0294C6.74461 15.8336 6.06293 15.3743 5.64344 14.6444C5.37252 14.1674 5.0142 13.7259 4.59908 13.32C4.46799 13.1918 4.25824 13.142 4.11841 13.0138C4.06597 12.964 3.97858 12.9248 4.0048 12.8572C4.03101 12.7753 4.14026 12.7788 4.22765 12.7717C5.10159 12.7112 5.72209 13.0494 6.15469 13.6333C6.55234 14.1674 7.07233 14.5625 7.82392 14.7228C8.35703 14.8367 8.89014 14.8118 9.4145 14.68C9.53685 14.648 9.6024 14.6053 9.61551 14.4842C9.65483 14.0427 9.76845 13.6155 10.1442 13.2417C10 13.2203 9.88643 13.199 9.76845 13.1847C8.84207 13.0708 7.98123 12.8109 7.23401 12.3445C6.3994 11.8247 5.8794 11.1304 5.71772 10.2795C5.57789 9.53545 5.63033 8.78779 5.74831 8.0437C5.84008 7.4705 6.03671 6.92577 6.5436 6.49854C6.72276 6.34901 6.73587 6.22796 6.65721 6.03927C6.39066 5.40554 6.46494 4.76825 6.70528 4.13453C6.74898 4.01704 6.81452 3.98144 6.97183 4.01348C7.56174 4.13097 8.01619 4.41223 8.42695 4.75401C8.62795 4.91778 8.79837 5.10292 8.96442 5.28805C9.01249 5.34146 9.04744 5.36994 9.13047 5.31653C9.44509 5.1136 9.82525 5.04951 10.2054 5.00323C11.3066 4.87506 12.4121 4.8715 13.5133 4.99967C13.8803 5.04239 14.2518 5.0958 14.5577 5.28449C14.7019 5.3735 14.7587 5.32366 14.8373 5.23109C15.1301 4.88218 15.4884 4.58312 15.9079 4.33746C16.1744 4.18081 16.4716 4.074 16.7949 4.00992C16.9348 3.98144 16.9916 4.01348 17.0353 4.11673C17.3324 4.8003 17.3761 5.48387 17.044 6.16744C17.0047 6.25288 16.9785 6.31341 17.0746 6.38817C17.6121 6.80117 17.8655 7.32808 17.9704 7.90841C18.0971 8.61334 18.1714 9.32183 18.0709 10.0374C17.9049 11.2408 17.1533 12.1166 15.8511 12.6898C15.803 12.6863 15.7637 12.697 15.7462 12.7361C15.7113 12.7504 15.6763 12.7646 15.6457 12.7753C15.5321 12.7788 15.436 12.818 15.3573 12.8785C15.3224 12.8892 15.283 12.8963 15.2481 12.907C15.1956 12.8963 15.1607 12.9141 15.1388 12.9497C15.117 12.9533 15.0908 12.9604 15.0689 12.964C14.8941 12.9853 14.7193 13.0031 14.5708 13.0886C14.5489 13.0922 14.5227 13.0957 14.5008 13.0993C14.3741 13.0957 14.2474 13.1028 14.1382 13.1669C14.042 13.1776 13.9503 13.1883 13.8541 13.199C13.7798 13.2025 13.6968 13.1954 13.6313 13.2168C13.5614 13.2417 13.5919 13.2773 13.6531 13.2915L13.6575 13.2951C13.6619 13.3449 13.6924 13.3805 13.7493 13.3948C13.7842 13.4517 13.8192 13.5087 13.8541 13.5621C13.8629 13.6369 13.8803 13.7081 13.959 13.7579C13.9677 13.79 13.9765 13.8184 13.9852 13.8505C14.0071 13.9502 14.0071 14.0499 14.077 14.1389C14.0814 14.1602 14.0857 14.1816 14.0901 14.1994C14.0639 14.2421 14.077 14.2813 14.1163 14.3169C14.1119 14.356 14.1119 14.3916 14.1163 14.4273Z"/><path fill="#989393" d="M14.5619 13.0957C14.7105 13.0067 14.8852 12.9925 15.06 12.9711C14.8984 13.0245 14.7498 13.11 14.5619 13.0957Z"/><path fill="#989393" d="M14.1294 13.174C14.2386 13.1099 14.3654 13.1064 14.4921 13.1064C14.3872 13.1776 14.2605 13.1847 14.1294 13.174Z"/><path fill="#989393" d="M14.0676 14.146C13.9939 14.0605 13.9939 13.9573 13.9766 13.8576C14.0676 13.9395 14.1023 14.0356 14.0676 14.146Z"/><path fill="#989393" d="M15.3484 12.8786C15.4314 12.8181 15.5232 12.7753 15.6368 12.7753C15.5581 12.843 15.4664 12.8857 15.3484 12.8786Z"/><path fill="#989393" d="M13.6489 13.2986C13.5833 13.2843 13.5571 13.2487 13.627 13.2238C13.6926 13.2024 13.7756 13.2096 13.8499 13.206C13.8018 13.2665 13.6751 13.2131 13.6489 13.2986Z"/><path fill="#989393" d="M13.9494 13.7651C13.8713 13.7152 13.854 13.644 13.8453 13.5693C13.9364 13.6156 13.9407 13.6903 13.9494 13.7651Z"/><path fill="#989393" d="M14.1076 14.324C14.0683 14.2884 14.0596 14.2528 14.0814 14.2065C14.1338 14.2385 14.1513 14.2777 14.1076 14.324Z"/><path fill="#989393" d="M9.32275 16.0578C9.35771 16.008 9.40578 16.008 9.46695 16.0258C9.42763 16.0614 9.38393 16.0792 9.32275 16.0578Z"/><path fill="#989393" d="M13.7442 13.4019C13.6835 13.3876 13.6575 13.352 13.6532 13.3022C13.7182 13.3129 13.7486 13.3485 13.7442 13.4019Z"/><path fill="#989393" d="M15.7418 12.7362C15.7592 12.697 15.8025 12.6864 15.8458 12.6899C15.8328 12.7326 15.8025 12.7611 15.7418 12.7362Z"/><path fill="#989393" d="M15.13 12.9533C15.1517 12.9141 15.1864 12.8999 15.2384 12.9106C15.221 12.9497 15.1907 12.9747 15.13 12.9533Z"/></svg>